<svg width="290" height="206" xmlns="http://www.w3.org/2000/svg"><defs><linearGradient x1="50%" y1="100%" x2="50%" y2="0%" id="a"><stop stop-color="gray" stop-opacity=".25" offset="0%"/><stop stop-color="gray" stop-opacity=".12" offset="54%"/><stop stop-color="gray" stop-opacity=".1" offset="100%"/></linearGradient><linearGradient x1="50.015%" y1="99.995%" x2="50.015%" y2=".004%" id="b"><stop stop-color="gray" stop-opacity=".25" offset="0%"/><stop stop-color="gray" stop-opacity=".12" offset="54%"/><stop stop-color="gray" stop-opacity=".1" offset="100%"/></linearGradient><linearGradient x1="50%" y1="100.008%" x2="50%" y2=".008%" id="c"><stop stop-color="gray" stop-opacity=".25" offset="0%"/><stop stop-color="gray" stop-opacity=".12" offset="54%"/><stop stop-color="gray" stop-opacity=".1" offset="100%"/></linearGradient></defs><g fill="none" fill-rule="evenodd"><path d="M36.008 151.836c-1.182 2.398.52 4.985-.076 7.46-.739 3.125-4.98 5.556-9.548 7.108-4.569 1.551-9.671 2.494-14.125 4.165-1.927.721-3.934 2.051-2.932 3.275.347.424.997.72 1.63 1 12.97 5.664 29.003 8.741 45.036 8.642 16.942-.107 33.535-3.644 50.464-3.238 21.835.52 42.953 7.565 64.541 5.534 9.166-.861 17.682-3.319 26.603-4.852 13.125-2.257 26.93-2.484 40.522-3.226 10.207-.557 21.867-2.001 26.748-7.432 3.525-3.926 2.046-9.111-2.92-12.435-4.968-3.325-12.902-4.746-20.236-4.1-3.941.346-7.859 1.244-11.798.887-2.288-.208-4.407-.828-6.487-1.437-16.14-4.738-32.876-9.465-50.802-10.152-29.17-1.128-56.18 8.473-84.584 12.625-4.426.646-9.226 1.143-13.404.06-4.405-1.143-7.29-3.842-11.696-4.98-2.083-.541-4.426-.698-6.485-1.286-5.657-1.62-3.038-3.845-10.876-2.343-4.114.784-8.255 2.049-9.575 4.725z" fill="#00B1EB" fill-rule="nonzero" opacity=".1"/><path d="M186.475 71.87s19.389-30.479 21.731-43.495c2.343-13.016 6.769-24.99 6.769-24.99" stroke="#535461" stroke-width="2"/><path d="M219.4 29.417l-12.235 1.04s6.508 11.195 12.235-1.04z" fill="#00B1EB" fill-rule="nonzero"/><path d="M198.054 22.648l9.69 7.76s-12.554 4.996-9.69-7.76zM220.962 18.743l-11.017 1.476s9.716 7.896 11.017-1.476zM202.74 14.838l7.273 5.105s-8.835 3.746-7.273-5.105zM212.713 10.202s9.03-2.392 10.332-1.872c1.301.521.52 6.248-3.124 6.508-3.645.26-7.208-4.636-7.208-4.636zM206.645 3.384s5.727 5.467 5.987 6.769c.26 1.301-4.686 4.425-7.29 0-2.602-4.426 1.303-6.769 1.303-6.769z" fill="#00B1EB" fill-rule="nonzero"/><circle fill="#FFD037" fill-rule="nonzero" cx="217.318" cy="3.905" r="2.603"/><circle fill="#FFD037" fill-rule="nonzero" cx="212.632" cy="2.603" r="2.603"/><path d="M42.448 161.025s-8.283-21.742-1.773-38.723c2.734-7.127 3.218-14.927 1.13-22.27a59.286 59.286 0 0 0-3.925-10.098" stroke="#535461" stroke-width="2"/><path d="M41.917 79.198c.211 2.728-4.11 11.02-4.11 11.02s-5.553-7.524-5.764-10.252a4.953 4.953 0 0 1 9.877-.768h-.003zM51.252 93.67c-1.301 2.405-9.439 7.015-9.439 7.015s-.57-9.332.734-11.738a4.953 4.953 0 0 1 8.708 4.722h-.003zM52.903 119.51c-2.343 1.415-11.689 1.3-11.689 1.3s4.22-8.345 6.558-9.761a4.953 4.953 0 1 1 5.13 8.473v-.013zM49.748 139.343c-2.067 1.791-11.303 3.246-11.303 3.246s2.749-8.94 4.813-10.73a4.953 4.953 0 0 1 6.49 7.484zM31.486 102.018c2.103 1.75 11.368 3.01 11.368 3.01s-2.933-8.88-5.04-10.627a4.952 4.952 0 0 0-6.33 7.617h.002zM28.091 125.26c2.53 1.041 11.749-.521 11.749-.521s-5.467-7.594-7.987-8.632a4.953 4.953 0 0 0-3.762 9.163v-.01zM27.891 148.3c2.32 1.45 11.67 1.464 11.67 1.464s-4.097-8.409-6.414-9.848a4.952 4.952 0 1 0-5.256 8.395v-.01z" fill="#00B1EB" fill-rule="nonzero"/><path d="M41.917 79.198c.211 2.728-4.11 11.02-4.11 11.02s-5.553-7.524-5.764-10.252a4.953 4.953 0 0 1 9.877-.768h-.003zM51.252 93.67c-1.301 2.405-9.439 7.015-9.439 7.015s-.57-9.332.734-11.738a4.953 4.953 0 0 1 8.708 4.722h-.003zM52.903 119.51c-2.343 1.415-11.689 1.3-11.689 1.3s4.22-8.345 6.558-9.761a4.953 4.953 0 1 1 5.13 8.473v-.013zM49.748 139.343c-2.067 1.791-11.303 3.246-11.303 3.246s2.749-8.94 4.813-10.73a4.953 4.953 0 0 1 6.49 7.484zM31.486 102.018c2.103 1.75 11.368 3.01 11.368 3.01s-2.933-8.88-5.04-10.627a4.952 4.952 0 0 0-6.33 7.617h.002zM28.091 125.26c2.53 1.041 11.749-.521 11.749-.521s-5.467-7.594-7.987-8.632a4.953 4.953 0 0 0-3.762 9.163v-.01zM27.891 148.3c2.32 1.45 11.67 1.464 11.67 1.464s-4.097-8.409-6.414-9.848a4.952 4.952 0 1 0-5.256 8.395v-.01z" fill="#00B1EB" fill-rule="nonzero"/><path d="M58.781 157.11s-6.284-.757-8.07-2.278c-1.786-1.52-9.426-3.832-10.093-1.705-.666 2.127-10.43 9.94-3.324 10.634 7.107.696 16.637.365 18.623-.62 1.987-.983 2.864-6.03 2.864-6.03z" fill="#A8A8A8" fill-rule="nonzero"/><path d="M37.244 162.994c7.11.692 16.627.367 18.627-.617 1.522-.75 2.379-3.853 2.702-5.293l.21.026s-.853 5.045-2.863 6.032c-2.01.987-11.517 1.302-18.626.617-2.051-.2-2.697-.995-2.562-2.083.237.69.984 1.17 2.512 1.318z" fill="#000" fill-rule="nonzero" opacity=".2"/><path d="M272.558 120.204c-10.204 13.985-6.82 33.946-.937 49.85 1.973 5.323 4.215 10.954 3.192 16.746-1.25 7.08-7.123 12.386-13.227 15.276-11.13 5.266-24.275 4.425-34.23-2.21-8.59-5.727-14.638-15.245-23.395-20.699-14.657-9.124-33.684-5.047-49.995 1.919-11.54 4.928-24.182 11.275-35.428 6.724-7.914-3.202-13.242-11.353-16.046-20.066-1.354-4.206-2.301-8.772-4.998-12.066-1.604-1.957-3.723-3.321-5.902-4.461-19.886-10.413-45.465-3.905-64.745-15.524-13.016-7.846-21.117-23.072-24.483-39.08C-1.002 80.607-.17 63.71 1.17 47.1c.953-11.803 2.46-24.415 9.557-33.69C18.233 3.6 30.812-.3 42.06 1.24 53.31 2.777 63.391 9.032 72.216 16.477c11.035 9.31 21.188 20.99 34.912 24.515 9.348 2.405 19.28.703 28.998-.05 16.244-1.254 32.43.19 48.519 1.823 15.4 1.562 30.908 3.306 45.494 8.427 10.322 3.623 18.503 10.472 28.221 15.153 6.334 3.05 13.303 3.759 19.264 7.7 7.357 4.855 14.006 13.456 11.848 23.778-2.039 9.812-11.499 14.958-16.914 22.38z" fill="#00B1EB" fill-rule="nonzero" opacity=".1"/><path d="M224.203 21.209H54.238a6.646 6.646 0 0 0-6.65 6.638V126.9a6.646 6.646 0 0 0 6.65 6.638h68.444v24.41h-6.44c-.876 0-1.586.71-1.588 1.586v3.29h49.95v-3.295a1.588 1.588 0 0 0-1.587-1.586h-8.224V133.53h69.41a6.646 6.646 0 0 0 6.652-6.63V27.847a6.646 6.646 0 0 0-6.652-6.638z" fill="url(#a)" fill-rule="nonzero"/><path fill="#474059" fill-rule="nonzero" d="M123.102 128.907h31.569v30.463h-31.569z"/><path fill="#000" fill-rule="nonzero" opacity=".1" d="M123.102 156.668h31.569v2.702h-31.569z"/><path d="M116.77 156.975h45.987c.862 0 1.562.7 1.562 1.562v3.249h-49.11v-3.25c0-.862.699-1.561 1.562-1.561z" fill="#474059" fill-rule="nonzero"/><rect fill="#474059" fill-rule="nonzero" x="49.3" y="22.233" width="180.183" height="110.663" rx="5"/><path fill="#FC6681" fill-rule="nonzero" d="M53.167 34.8h172.067v90.405H53.167z"/><ellipse fill="#FFF" fill-rule="nonzero" cx="139.174" cy="30.505" rx="1.518" ry="1.499"/><path fill="#000" fill-rule="nonzero" opacity=".1" d="M123.169 132.989h31.47v1h-31.47z"/><path fill="#D6D6E3" fill-rule="nonzero" d="M53.167 34.8h172.067v3.124H53.167z"/><circle fill="#FC6681" fill-rule="nonzero" cx="55.136" cy="36.568" r="1"/><circle fill="#FFC74C" fill-rule="nonzero" cx="57.219" cy="36.568" r="1"/><circle fill="#85D459" fill-rule="nonzero" cx="59.302" cy="36.568" r="1"/><path d="M237.344 140.84s1.242 1.624-.572 4.077c-1.815 2.452-3.312 4.522-2.708 6.052 0 0 2.739-4.555 4.97-4.618 2.23-.062.765-2.772-1.69-5.511z" fill="#00B1EB" fill-rule="nonzero"/><path d="M237.344 140.84c.112.16.2.335.26.52 2.177 2.557 3.335 4.947 1.245 5.001-1.947.055-4.285 3.538-4.845 4.426.018.068.04.135.066.2 0 0 2.738-4.555 4.97-4.618 2.23-.062.76-2.79-1.696-5.529z" fill="#000" fill-rule="nonzero" opacity=".1"/><path d="M239.867 142.91c0 .572-.113 1.04-.25 1.04-.136 0-.25-.462-.25-1.04 0-.578.141-.302.277-.302.137 0 .223-.271.223.302z" fill="#FFD037" fill-rule="nonzero"/><path d="M240.447 143.592c-.502.273-.94.44-.976.37-.036-.071.339-.35.841-.623.503-.273.305-.075.341 0 .037.076.297-.02-.206.253z" fill="#FFD037" fill-rule="nonzero"/><path d="M230.784 140.84s-1.241 1.624.573 4.077c1.814 2.452 3.311 4.522 2.707 6.052 0 0-2.738-4.555-4.97-4.618-2.23-.062-.762-2.772 1.69-5.511z" fill="#00B1EB" fill-rule="nonzero"/><path d="M230.784 140.84c-.111.16-.199.335-.26.52-2.176 2.557-3.335 4.947-1.244 5.001 1.947.055 4.285 3.538 4.844 4.426-.018.068-.04.135-.065.2 0 0-2.738-4.555-4.97-4.618-2.23-.062-.757-2.79 1.695-5.529z" fill="#000" fill-rule="nonzero" opacity=".1"/><path d="M228.475 142.91c0 .572.114 1.04.25 1.04.137 0 .25-.462.25-1.04 0-.578-.14-.302-.277-.302-.136 0-.223-.271-.223.302z" fill="#FFD037" fill-rule="nonzero"/><path d="M227.684 143.592c.502.273.94.44.976.37.036-.071-.338-.35-.84-.623-.503-.273-.305-.075-.342 0-.036.076-.297-.02.206.253z" fill="#FFD037" fill-rule="nonzero"/><path d="M242.57 151.339s-3.416-.682-4.327-1.593c-.912-.911-5.012-2.505-5.467-1.367-.456 1.138-6.15 5.011-2.278 5.693 3.87.682 9.111.911 10.249.456 1.137-.456 1.822-3.19 1.822-3.19z" fill="#A8A8A8" fill-rule="nonzero"/><path d="M230.498 153.648c3.87.682 9.111.911 10.249.456.867-.347 1.47-2.013 1.708-2.789l.114.024s-.682 2.733-1.822 3.189c-1.14.455-6.378.226-10.25-.456-1.116-.198-1.436-.661-1.316-1.247.096.38.487.677 1.317.823z" fill="#000" fill-rule="nonzero" opacity=".2"/><path d="M268.862 67.978c0-.1-.01-.197-.029-.289a4.346 4.346 0 0 1-.052-.317 11.18 11.18 0 0 0-.127-.604c-.025-.098-.05-.193-.076-.287a7.747 7.747 0 0 0-1.507-2.936l-.123-.14c-.081-.09-.161-.178-.24-.261a6.648 6.648 0 0 0-.453-.42 5.578 5.578 0 0 0-.634-.457 1.33 1.33 0 0 0-.563-.188l-1.239-.125-1.676-.166-6.055-2.39-.24.086c-.177-.496-.326-1-.448-1.513.185-.08.348-.201.48-.354.143-.114.255-.261.327-.43.151-.356-.14-1.121-.08-1.561.096-.7.455-1.377.744-2.012.622-1.365 1.075-2.843 1.003-4.34-.073-1.497-.745-3.017-1.99-3.853-.642-.432-1.4-.664-2.066-1.06-.521-.307-.98-.707-1.476-1.054a8.351 8.351 0 0 0-8.33-.606c-1.258.63-2.33 1.562-3.518 2.327-1.187.765-2.585 1.336-3.972 1.114a.916.916 0 0 0-.042.175l-.117-.016c-.24.664.346 1.317.888 1.77 1.025.86 2.186 1.716 3.524 1.747.521 0 1.063-.099 1.534.117.102.049.199.11.286.182a6.85 6.85 0 0 0 2.072 6.756l-3.09-1.13s-.13.068-.328.195l-4.292-2.902s-8.604-3.192-10.994 1.754c-2.39 4.946 10.358 2.382 10.358 2.382l2.729 1.523c-.09.572.015 1.157.299 1.66l7.437 4.674c-1.502.47-3.972 1.223-4.41 1.223-.637 0-2.39.638-3.506 3.187-1.117 2.548-5.1 14.979-8.604 17.048-3.504 2.07-12.756 15.935-12.756 15.935l.042.109a7.121 7.121 0 0 0-.484.146c-2.312.765-3.869 2.376-4.803 3.683a1.562 1.562 0 0 0 1.078 2.463c3.644.468 5.64-1.24 6.599-2.53.062-.084.12-.167.174-.245.285.124.606.139.901.041l4.467-3.66s-3.48 3.489-1.445 6.672l-.156.222a51.11 51.11 0 0 0-7.482 16.535s-1.913 1.435-2.082 7.17c-.17 5.735-2.083 14.979-2.083 14.979s-1.275 10.993-.479 14.34c0 0 .091.134.26.337-.06.073-.124.148-.197.229-.695.763-1.95 1.822-3.41 1.505-2.231-.48-2.231 3.506.955 3.824 2.051.205 6.086 1.137 8.697 1.775a1.843 1.843 0 0 0 2.273-1.986c-.156-1.427-.44-3.155-.955-4.384a5.817 5.817 0 0 0-.1-.224c.094-.088.188-.18.282-.278 0 0 0-7.011 1.114-8.924 0 0 3.028-14.5 2.863-18.166-.124-2.863 7.854-14.034 11.327-18.743l-.028-.18c.918-1.218 1.483-1.947 1.483-1.947l2.71 17.369s1.276 3.824 2.864 5.896c0 0 6.852 13.225 7.648 17.369.604 3.142 1.848 4.998 2.416 5.714a5.172 5.172 0 0 1-.208.203c-.724.677-1.797 1.354-3.004 1.096-2.231-.479-2.231 3.507.955 3.824 2.051.206 6.086 1.138 8.697 1.776a1.843 1.843 0 0 0 2.273-1.987c-.18-1.658-.536-3.72-1.224-4.946a4.132 4.132 0 0 0-.182-.289c.244-.1.46-.254.633-.453 0 0-4.142-10.038-4.142-12.755 0 0-1.752-10.359-7.648-14.183 0 0 .557-12.954 2.236-20.162.042-.173.084-.347.128-.52a46.686 46.686 0 0 0 4.649-.985l.159-4.78.796 3.825 8.924-5.576s-.078-1.005-.229-2.546a156.5 156.5 0 0 0-.669-5.764c-.117-.859-.245-1.728-.383-2.577a67.151 67.151 0 0 0-.63-3.322 28.362 28.362 0 0 0-.127-.544l-.065-.26a21.005 21.005 0 0 0-.133-.505 9.265 9.265 0 0 1-.323-2.083 11.32 11.32 0 0 1 0-.84c.01-.28.037-.56.078-.839a9.598 9.598 0 0 1 .854-2.825 142.691 142.691 0 0 0 1.4-2.995c.164-.356.327-.72.49-1.094 1.562-3.512 3.082-7.427 3.491-9.999.044-.26.073-.52.091-.765.02-.228.026-.457.016-.685z" fill="url(#b)" fill-rule="nonzero"/><path d="M242.239 58.174l-5.256-3.556s-8.346-3.09-10.674 1.7c-2.327 4.79 10.046 2.32 10.046 2.32l5.256 2.936.628-3.4z" fill="#F7BBC3" fill-rule="nonzero"/><path d="M257.785 166.54c-2.536-.618-6.446-1.524-8.437-1.722-3.09-.31-3.09-4.165-.927-3.71 1.174.261 2.213-.405 2.916-1.061.219-.205.424-.424.614-.656.255-.31.607-.526 1-.612 1.158-.26 3.571-.635 5.055.164.343.213.62.517.8.877.666 1.182 1.012 3.181 1.187 4.79a1.788 1.788 0 0 1-2.208 1.93zM218.684 168.085c-2.535-.617-6.445-1.522-8.437-1.72-3.09-.31-3.09-4.165-.926-3.71 1.416.305 2.634-.718 3.308-1.458a5.68 5.68 0 0 0 .222-.26c.255-.31.607-.526 1-.612 1.158-.26 3.57-.635 5.055.164.434.235.78.75 1.06 1.414.5 1.192.78 2.863.926 4.253a1.788 1.788 0 0 1-2.208 1.93z" fill="#B77983" fill-rule="nonzero"/><path d="M219.96 161.903c-3.691 3.803-6.854-.07-7.333-.71a5.68 5.68 0 0 0 .221-.261c.255-.31.607-.526 1-.612 1.158-.26 3.571-.635 5.055.164.432.24.781.755 1.057 1.419zM258.803 159.82c-1.599 1.094-6.982.823-6.982.823a5.295 5.295 0 0 1-.484-.599c.219-.205.424-.424.614-.656.255-.31.607-.526 1-.612 1.158-.26 3.571-.635 5.055.164.342.214.618.519.797.88z" fill="#000" fill-rule="nonzero" opacity=".1"/><path d="M259.084 159.1c-1.083 1.39-7.263 1.082-7.263 1.082s-1.853-1.853-2.627-5.873c-.773-4.02-7.406-16.848-7.406-16.848-1.546-2.01-2.783-5.727-2.783-5.727l-2.626-16.846s-12.686 16.698-12.532 20.256c.153 3.559-2.783 17.619-2.783 17.619-1.083 1.853-1.083 8.656-1.083 8.656-4.02 4.165-7.42-.781-7.42-.781-.78-3.247.464-13.91.464-13.91s1.854-8.962 2.01-14.528c.156-5.566 2.022-6.948 2.022-6.948a49.573 49.573 0 0 1 7.258-16.03c.935-1.339 1.562-2.052 1.562-2.052l25.022 2.936a15.81 15.81 0 0 0-1.077 3.317c-1.627 6.992-2.169 19.558-2.169 19.558 5.727 3.71 7.42 13.755 7.42 13.755-.008 2.627 4.011 12.363 4.011 12.363z" fill="#605D82" fill-rule="nonzero"/><g opacity=".05" fill="#000" fill-rule="nonzero"><path d="M234.986 116.955l-.32-2.059s-12.662 16.69-12.52 20.248c.144 3.559-2.782 17.619-2.782 17.619-1.083 1.853-1.083 8.656-1.083 8.656a5.303 5.303 0 0 1-2.418 1.562c1.218.32 2.697.085 4.274-1.562 0 0 0-6.8 1.083-8.656 0 0 2.936-14.058 2.783-17.619-.122-2.777 7.617-13.615 10.983-18.189z"/><path d="M255.22 146.734s-1.7-10.046-7.418-13.756c0 0 .541-12.563 2.168-19.558a15.81 15.81 0 0 1 1.078-3.316l-25.038-2.937-.164.198 23.348 2.739a15.81 15.81 0 0 0-1.077 3.316c-1.627 6.992-2.169 19.558-2.169 19.558 5.727 3.71 7.42 13.756 7.42 13.756 0 2.626 4.019 12.365 4.019 12.365-.638.82-3.049 1.041-4.918 1.099 1.484.039 5.878.052 6.769-1.099-.008 0-4.017-9.736-4.017-12.365z"/></g><path d="M45.056 40.499v6.659h-8.344v11.856h-8.183V47.158H2.85v-6.253L29.905 1.764h6.806v38.735h8.344zm-33.147.734h17.499V15.47L11.909 41.233z" fill="url(#c)" fill-rule="nonzero" transform="rotate(-5 688.533 -1981.386)"/><path d="M221.82 88.262l.552 6.317-7.935.695.985 11.247-7.781.681-.984-11.248-24.422 2.137-.519-5.932L204.2 52.775l6.47-.566 3.216 36.747 7.935-.694zm-32.357 2.831l16.64-1.456-2.102-24.036-14.538 25.492z" fill="#FFF"/><path d="M221.223 105.004a5.597 5.597 0 0 1-.732 1.28c-.93 1.253-2.863 2.909-6.401 2.456a1.52 1.52 0 0 1-1.042-2.39c.909-1.265 2.419-2.83 4.66-3.572a8.395 8.395 0 0 1 1.974-.4l1.54 2.626z" fill="#F7BBC3" fill-rule="nonzero"/><path d="M253.86 61.782l-12.395-4.532s-3.556 1.854-2.163 4.483l12.056 7.573 2.501-7.524z" fill="#D9D9EA" fill-rule="nonzero"/><path d="M253.86 61.782l-12.395-4.532s-3.556 1.854-2.163 4.483l12.056 7.573 2.501-7.524z" fill="#000" fill-rule="nonzero" opacity=".1"/><path d="M254.284 54.311s-.154 7.263 3.09 9.736c3.243 2.473-9.43 3.864-9.43 3.864s2.01-7.42 0-11.283c-2.009-3.863 6.34-2.317 6.34-2.317z" fill="#F7BBC3" fill-rule="nonzero"/><path d="M250.9 110.106a15.81 15.81 0 0 0-1.078 3.317c-14.948 2.283-25.35-3.936-25.35-3.936-.058-.089-.112-.18-.162-.26.935-1.339 1.562-2.052 1.562-2.052l25.027 2.931zM221.223 105.004a5.597 5.597 0 0 1-.732 1.28c-1.432-.236-2.574-2.972-2.785-3.506a8.395 8.395 0 0 1 1.973-.4l1.544 2.626z" fill="#000" fill-rule="nonzero" opacity=".1"/><path d="M255.53 60.804l-5.562 2.01-2.32 3.09s-4.79 1.546-5.41 1.546c-.62 0-2.319.617-3.4 3.09-1.08 2.473-4.945 14.528-8.345 16.538-3.4 2.01-12.366 15.455-12.366 15.455s1.547 4.166 3.4 3.556l4.33-3.556s-3.4 3.4-1.39 6.493c0 0 12.672 7.573 30.137 2.936l.153-4.636.781 3.71 8.638-5.412s-.781-9.976-2.171-15.055a9.174 9.174 0 0 1 .596-6.396c2.244-4.686 5.706-12.496 5.285-15.336-.498-3.355-2.395-4.813-3.124-5.256-.166-.1-.352-.16-.544-.18l-2.814-.28-5.873-2.317z" fill="#D9D9EA" fill-rule="nonzero"/><path d="M246.026 76.335s-3.092 14.38-6.492 16.691c-3.4 2.312-12.52 9.737-12.829 10.973" fill="#000" fill-rule="nonzero" opacity=".05"/><path d="M244.633 75.876s-3.09 14.37-6.49 16.687c-3.4 2.317-12.518 9.736-12.828 10.973" fill="#D9D9EA" fill-rule="nonzero"/><path d="M247.57 65.825s10.673-3.556 13.755-2.626" fill="#000" fill-rule="nonzero" opacity=".1"/><g opacity=".05" fill="#000" fill-rule="nonzero"><path d="M262.614 84.175c2.244-4.685 5.706-12.495 5.285-15.335-.498-3.356-2.395-4.814-3.124-5.256-.166-.1-.352-.161-.544-.18l-1.203-.12c.126.03.246.08.357.146.723.443 2.621 1.898 3.123 5.256.422 2.848-3.04 10.658-5.284 15.336a9.174 9.174 0 0 0-.596 6.396c1.395 5.076 2.17 15.055 2.17 15.055l-7.452 4.657.19.906 8.64-5.412s-.781-9.976-2.171-15.055a9.174 9.174 0 0 1 .609-6.394zM260.013 62.967l1.338.135-5.82-2.298-.521.187z"/></g><path d="M244.633 90.863s4.79-2.626 6.337-2.01c1.546.617 7.263-.153 7.263-.153M253.763 56.243c-.177-1.562.541-1.302.541-1.302s-8.35-1.557-6.346 2.307c.509 1.065.8 2.22.859 3.4h.078c2.317 0 3.67-2.593 4.868-4.405z" fill="#000" fill-rule="nonzero" opacity=".05"/><circle fill="#F7BBC3" fill-rule="nonzero" cx="248.885" cy="53.384" r="6.646"/><path d="M256.137 55.35c.604-1.323 1.041-2.757.971-4.21-.07-1.452-.724-2.926-1.929-3.738-.625-.419-1.359-.645-2.004-1.028-.505-.3-.95-.687-1.432-1.023a8.101 8.101 0 0 0-8.09-.588c-1.222.611-2.26 1.522-3.411 2.257-1.15.734-2.507 1.301-3.856 1.08-.231.643.336 1.278.862 1.718.995.833 2.122 1.666 3.418 1.695.503 0 1.041-.097 1.487.114.307.17.568.412.76.706.623.829 1.152 1.726 1.575 2.673.174.388.349.81.705 1.042.596.382 1.372.065 2.083.036 1.1-.042 2.082.65 2.905 1.39.823.74 1.59 1.588 2.619 1.979.78.291 2.304.28 2.694-.636.149-.346-.135-1.088-.078-1.51.091-.695.43-1.34.721-1.957z" fill="#000" fill-rule="nonzero" opacity=".1"/><path d="M256.29 55.196c.605-1.322 1.042-2.757.972-4.21-.07-1.452-.724-2.925-1.93-3.737-.624-.42-1.358-.646-2.004-1.029-.505-.299-.95-.687-1.432-1.023a8.101 8.101 0 0 0-8.09-.588c-1.221.612-2.26 1.523-3.41 2.257-1.151.734-2.507 1.302-3.856 1.08-.232.643.336 1.279.862 1.718.994.833 2.121 1.667 3.418 1.695.502 0 1.041-.096 1.486.115.308.169.569.411.76.705a13.813 13.813 0 0 1 1.586 2.671c.174.388.349.81.705 1.041.596.383 1.372.065 2.083.037 1.1-.042 2.082.65 2.905 1.39.823.74 1.59 1.588 2.619 1.978.78.292 2.304.282 2.694-.635.149-.346-.135-1.088-.078-1.51.08-.684.43-1.34.71-1.955z" fill="#A1616A" fill-rule="nonzero"/><path d="M114.69 90.635v6.341h-7.965v11.29h-7.81v-11.29H74.4v-5.955l25.829-37.274h6.496v36.888h7.965zm-32.48 0h16.704V66.507L82.21 90.635zm56.023 18.25c-6.341 0-11.174-2.371-14.5-7.114-3.325-4.743-4.988-11.652-4.988-20.726 0-9.073 1.663-15.995 4.988-20.764 3.326-4.769 8.159-7.153 14.5-7.153 6.342 0 11.175 2.372 14.5 7.115 3.326 4.743 4.988 11.651 4.988 20.725 0 9.125-1.662 16.06-4.988 20.803-3.325 4.743-8.158 7.114-14.5 7.114zm0-6.418c3.97 0 6.883-1.727 8.739-5.182 1.856-3.454 2.784-8.893 2.784-16.317 0-7.372-.928-12.773-2.784-16.201-1.856-3.429-4.769-5.143-8.739-5.143-3.97 0-6.882 1.714-8.738 5.143-1.856 3.428-2.784 8.829-2.784 16.201s.928 12.799 2.784 16.279c1.856 3.48 4.769 5.22 8.738 5.22z" fill="#FFF"/></g></svg>