<?xml version="1.0" encoding="UTF-8"?>
<svg width="90px" height="87px" viewBox="0 0 90 87" version="1.1" xmlns="http://www.w3.org/2000/svg" xmlns:xlink="http://www.w3.org/1999/xlink">
    <!-- Generator: Sketch 48.2 (47327) - http://www.bohemiancoding.com/sketch -->
    <title>Group 28</title>
    <desc>Created with Sketch.</desc>
    <defs></defs>
    <g id="Cancle-Alert" stroke="none" stroke-width="1" fill="none" fill-rule="evenodd" transform="translate(-113.000000, -92.000000)">
        <g id="Group-30" transform="translate(10.000000, 40.000000)">
            <g id="Group-28" transform="translate(99.000000, 48.000000)">
                <ellipse id="Oval-10" fill="#F2FBFE" cx="30.8571429" cy="89" rx="16.1428571" ry="2"></ellipse>
                <circle id="Oval-7" fill-opacity="0.05" fill="#00B1EB" cx="39" cy="46" r="35"></circle>
                <g id="Group-27" transform="translate(51.037022, 42.550264) rotate(-22.000000) translate(-51.037022, -42.550264) translate(7.537022, 14.550264)">
                    <g id="Group-25" transform="translate(0.000000, 6.000000)" fill-rule="nonzero">
                        <rect id="Rectangle-path" fill="#78D6F4" x="7.14550821" y="30.1995272" width="4.23431913" height="4.54707772"></rect>
                        <path d="M39.7500418,15.1998186 L39.7500418,25.3236802 L44.1236424,24.5975163 C44.5320412,24.5296936 44.8312782,24.1777971 44.8312782,23.7653573 L44.8312782,16.7581416 C44.8312782,16.3457017 44.5320412,15.9938052 44.1236424,15.9259825 L39.7500418,15.1998186 Z" id="Shape" fill-opacity="0.1" fill="#00B1EB"></path>
                        <path d="M39.7500418,0.857725672 L39.3119688,0.857725672 C39.0536341,0.857725672 38.8179337,0.978545858 38.6562852,1.17926183 C32.4477861,8.88290249 9.6419716,9.96211705 3.29178502,10.1132976 C2.37152882,10.1351358 1.64081314,10.8829604 1.64081314,11.7998977 L1.64081314,28.7236011 C1.64081314,29.6405384 2.37152882,30.388363 3.29178502,30.41029 C9.64206071,30.5614705 32.4477861,31.6406851 38.6562852,39.344237 C38.8179337,39.5447754 39.0537232,39.6657731 39.3119688,39.6657731 L39.7500418,39.6657731 C40.2176998,39.6657731 40.59687,39.2880436 40.59687,38.8221624 L40.59687,1.70133642 C40.59687,1.2354552 40.2176998,0.857725672 39.7500418,0.857725672 Z" id="Shape" fill-opacity="0.1" fill="#00B1EB"></path>
                        <path d="M39.7500418,28.6983008 L39.3119688,28.6983008 C39.0536341,28.6983008 38.8179337,28.6325199 38.6562852,28.5235953 C33.1089947,24.782697 14.3206015,23.9165378 5.85062657,23.7158219 C5.39116681,23.7049916 5.02830409,23.3304579 5.02830409,22.872655 L5.02830409,10.0588797 C4.36682818,10.0837362 3.77628516,10.1016684 3.29178502,10.1132089 C2.37152882,10.1351358 1.64081314,10.8829604 1.64081314,11.7998977 L1.64081314,28.7236011 C1.64081314,29.6405384 2.37152882,30.388363 3.29178502,30.41029 C9.64206071,30.5614705 32.4477861,31.6406851 38.6562852,39.344237 C38.8179337,39.5447754 39.0537232,39.6657731 39.3119688,39.6657731 L39.7500418,39.6657731 C40.2176998,39.6657731 40.59687,39.2880436 40.59687,38.8221624 L40.59687,28.2397877 C40.59687,28.4929686 40.2176998,28.6983008 39.7500418,28.6983008 Z" id="Shape" fill-opacity="0.5" fill="#00B1EB"></path>
                        <path d="M12.0108271,35.9563005 C11.7246004,34.6730853 10.5821888,33.7601428 9.26262322,33.7601428 C7.94305764,33.7601428 6.80064606,34.6730853 6.51441938,35.9563005 L4.74590922,43.8840044 L13.779159,43.8840044 L12.0108271,35.9563005 Z" id="Shape" fill-opacity="0.5" fill="#00B1EB"></path>
                        <path d="M43.62533,14.996617 L41.3908549,14.5514199 L41.3908549,1.70133642 C41.3908549,0.800023158 40.6547925,0.0667573696 39.7500418,0.0667573696 L39.3119688,0.0667573696 C38.8179337,0.0667573696 38.3533055,0.291797173 38.0372264,0.684085492 C35.5495851,3.77081488 29.6208967,6.19645101 20.8919632,7.69902446 C13.5654692,8.96022386 6.1296352,9.25450668 3.27280423,9.32250688 C1.91242551,9.35490906 0.846828182,10.4430009 0.846828182,11.7998089 L0.846828182,28.7235123 C0.846828182,30.0803204 1.91242551,31.168501 3.27280423,31.2009032 C3.93276525,31.216616 4.8374269,31.2444908 5.92806461,31.2934047 L5.92806461,35.1854837 C5.84928989,35.3764346 5.78575327,35.5767067 5.7394152,35.7847909 L4.10911724,43.0931249 L0.793984962,43.0931249 C0.355555556,43.0931249 0,43.4472408 0,43.8840932 C0,44.3208569 0.355466444,44.6750615 0.793984962,44.6750615 L17.7314397,44.6750615 C18.1698691,44.6750615 18.5254247,44.3209456 18.5254247,43.8840932 C18.5254247,43.4473296 18.1699582,43.0931249 17.7314397,43.0931249 L14.4162183,43.0931249 L12.7860095,35.7847909 C12.7396714,35.5766179 12.6761348,35.3763458 12.597271,35.1853061 C12.597271,35.1847735 12.5973601,35.1843296 12.5973601,35.183797 L12.5973601,31.7505862 C15.1968365,31.992049 18.0525982,32.3355121 20.8921415,32.8243856 C29.6210749,34.326959 35.5496742,36.7526839 38.0372264,39.8392358 C38.3533946,40.2316129 38.8180228,40.4565639 39.3120579,40.4565639 L39.7501309,40.4565639 C40.6548816,40.4565639 41.390944,39.7232981 41.390944,38.8219849 L41.390944,25.9720789 L43.6254191,25.5268818 C44.7842272,25.2960718 45.6252632,24.2740271 45.6252632,23.0968071 L45.6252632,17.4266918 C45.625174,16.2495605 44.7841381,15.227427 43.62533,14.996617 Z M12.7895739,43.0931249 L5.73576163,43.0931249 L7.28942356,36.1278989 C7.49651908,35.199421 8.30788081,34.5511111 9.26262322,34.5511111 C10.2173656,34.5511111 11.0288165,35.199421 11.2358229,36.1278989 L12.7895739,43.0931249 Z M11.009301,33.4125961 C10.4899582,33.1284334 9.89397939,32.9692633 9.26262322,32.9692633 C8.63126706,32.9692633 8.03528822,33.1284334 7.51594542,33.4125961 L7.51594542,31.3736556 C8.57646338,31.4331336 9.75247006,31.5109876 11.009301,31.6126328 L11.009301,33.4125961 Z M44.0372932,23.0967183 C44.0372932,23.5225628 43.733066,23.892214 43.3139738,23.975572 L41.3908549,24.3588054 L41.3908549,20.2615719 C41.3908549,19.8248082 41.0353885,19.4706036 40.59687,19.4706036 C40.1584405,19.4706036 39.802885,19.8247194 39.802885,20.2615719 L39.802885,38.8220736 C39.802885,38.8511912 39.7791813,38.8748048 39.7499527,38.8748048 L39.3118797,38.8748048 C39.2972654,38.8748048 39.2802451,38.8550972 39.2752548,38.8489719 C36.5026344,35.4086592 30.4085547,32.8572316 21.1622389,31.2656188 C13.7315734,29.986576 6.20270677,29.6882984 3.31058758,29.6194104 C2.81940407,29.6076924 2.43461988,29.21425 2.43461988,28.7234236 L2.43461988,11.7998977 C2.43461988,11.3092488 2.81940407,10.9156289 3.31058758,10.9039108 C6.20261766,10.8350229 13.7315734,10.5368341 21.1622389,9.25770251 C30.4084656,7.66617841 36.5025453,5.11466204 39.2753439,1.6743494 C39.2802451,1.66831283 39.2972654,1.6486052 39.3118797,1.6486052 L39.7499527,1.6486052 C39.7791813,1.6486052 39.802885,1.67221884 39.802885,1.70133642 L39.802885,16.8867738 C39.802885,17.3235374 40.1583514,17.6777421 40.59687,17.6777421 C41.0352994,17.6777421 41.3908549,17.3236262 41.3908549,16.8867738 L41.3908549,16.1646046 L43.3139738,16.5478381 C43.733066,16.6313736 44.0372932,17.0010248 44.0372932,17.4266918 L44.0372932,23.0967183 L44.0372932,23.0967183 Z" id="Shape" fill="#0084B0"></path>
                        <path d="M11.803286,14.4088503 L5.02830409,14.4088503 C4.58987469,14.4088503 4.23431913,14.7629662 4.23431913,15.1998186 C4.23431913,15.636671 4.58978558,15.9907869 5.02830409,15.9907869 L11.803286,15.9907869 C12.2417154,15.9907869 12.597271,15.636671 12.597271,15.1998186 C12.597271,14.7629662 12.2417154,14.4088503 11.803286,14.4088503 Z" id="Shape" fill="#0084B0"></path>
                        <path d="M11.803286,24.5327119 L5.02830409,24.5327119 C4.58987469,24.5327119 4.23431913,24.8868278 4.23431913,25.3235915 C4.23431913,25.7603551 4.58978558,26.1145598 5.02830409,26.1145598 L11.803286,26.1145598 C12.2417154,26.1145598 12.597271,25.7604439 12.597271,25.3235915 C12.5971818,24.8868278 12.2417154,24.5327119 11.803286,24.5327119 Z" id="Shape" fill="#0084B0"></path>
                        <path d="M11.803286,19.4707811 L10.1095405,19.4707811 C9.67111111,19.4707811 9.31555556,19.824897 9.31555556,20.2617494 C9.31555556,20.6985131 9.671022,21.0527177 10.1095405,21.0527177 L11.803286,21.0527177 C12.2417154,21.0527177 12.597271,20.6986018 12.597271,20.2617494 C12.5971818,19.824897 12.2417154,19.4707811 11.803286,19.4707811 Z" id="Shape" fill="#0084B0"></path>
                        <path d="M5.02830409,21.0526289 L6.72169312,21.0526289 C7.16012253,21.0526289 7.51567808,20.6985131 7.51567808,20.2616606 C7.51567808,19.824897 7.16021164,19.4706923 6.72169312,19.4706923 L5.02830409,19.4706923 C4.58987469,19.4706923 4.23431913,19.8248082 4.23431913,20.2616606 C4.23431913,20.6985131 4.58978558,21.0526289 5.02830409,21.0526289 Z" id="Shape" fill="#0084B0"></path>
                        <path d="M9.26690058,36.3438838 L9.25843498,36.3438838 C8.82000557,36.3438838 8.46872737,36.6979997 8.46872737,37.1348521 C8.46872737,37.5716158 8.82847118,37.9258204 9.26690058,37.9258204 C9.70532999,37.9258204 10.0608855,37.5717045 10.0608855,37.1348521 C10.0607964,36.6979997 9.70532999,36.3438838 9.26690058,36.3438838 Z" id="Shape" fill="#0084B0"></path>
                    </g>
                    <g id="Group-26" transform="translate(55.282625, 0.951057)" fill="#00B1EB" fill-opacity="0.2">
                        <path d="M8.98134326,6.16222416 L9.75004681,6.16223521 C10.0927689,6.16223521 10.4116172,6.33774801 10.594944,6.62731613 C14.6861866,13.08951 16.7318078,19.5018368 16.7318078,25.8642964 C16.7318078,35.6369004 11.6453361,42.9417315 10.2970161,45.3649104 C8.94869611,47.7880893 7.12359192,48.1585524 7.66567042,45.3649104 C8.20774892,42.5712684 14.1004622,35.5642388 14.1004622,25.7635673 C14.1004622,19.5968226 12.1897467,13.4300779 8.36831568,7.2633332 L8.36828462,7.26335245 C8.1584703,6.92476951 8.26285789,6.4802057 8.60144083,6.27039138 C8.71554164,6.19968498 8.84711066,6.16222416 8.98134326,6.16222416 Z" id="Rectangle-11"></path>
                        <path d="M0.626053326,12.3245207 L1.31764327,12.3245267 C1.66049191,12.3245267 1.97943988,12.5001673 2.16273263,12.7899068 C4.87785367,17.0818262 6.23541419,21.3410084 6.23541419,25.5674533 C6.23541419,32.1362007 4.87966233,33.5409131 1.86308712,38.6749738 C1.86308712,38.6749738 1.86308712,38.6749738 1.86308712,38.6749738 L1.86308712,38.6749738 C1.58485199,39.1485161 0.975415969,39.3068438 0.501873657,39.0286087 C0.028331344,38.7503736 -0.129996415,38.1409376 0.148238709,37.6673953 C0.163137655,37.642038 0.179154132,37.6173541 0.196240909,37.5934165 C3.0441129,33.6037562 4.46803576,29.5950956 4.46803576,25.5674533 C4.46803576,21.5016325 3.01698992,17.4164685 0.114898257,13.3119613 L0.114889559,13.3119675 C-0.0847162696,13.0296595 -0.0176729505,12.6389912 0.264635003,12.4393854 C0.370334251,12.3646507 0.496602181,12.3245207 0.626053326,12.3245207 Z" id="Rectangle-11-Copy-2"></path>
                        <path d="M21.5335863,-1.6737244e-13 L22.4639252,2.58984939e-05 C22.8263014,2.58984939e-05 23.1603212,0.196073791 23.3369977,0.512462768 C28.0822036,9.0100885 30.4548065,17.4418942 30.4548065,25.8078798 C30.4548065,38.6090809 25.1147873,47.4820677 23.0479997,51.351868 C20.9812121,55.2216682 19.4630051,54.6136757 20.019173,51.351868 C20.5753408,48.0900602 27.4259798,38.513901 27.4259798,25.675934 C27.4259798,17.5544287 25.202809,9.4329234 20.7564673,1.31141811 L20.7564653,1.31141924 C20.5214922,0.882227115 20.6789379,0.343814866 21.10813,0.108841821 C21.238567,0.0374304842 21.3848806,-1.67456145e-13 21.5335863,-1.67483462e-13 Z" id="Rectangle-11-Copy"></path>
                    </g>
                </g>
            </g>
        </g>
    </g>
</svg>