<svg width="280" height="197" xmlns="http://www.w3.org/2000/svg"><defs><linearGradient x1="50%" y1="100%" x2="50%" y2="0%" id="a"><stop stop-color="gray" stop-opacity=".25" offset="0%"/><stop stop-color="gray" stop-opacity=".12" offset="54%"/><stop stop-color="gray" stop-opacity=".1" offset="100%"/></linearGradient><linearGradient x1="50%" y1="100.002%" x2="50%" y2=".004%" id="b"><stop stop-color="gray" stop-opacity=".25" offset="0%"/><stop stop-color="gray" stop-opacity=".12" offset="54%"/><stop stop-color="gray" stop-opacity=".1" offset="100%"/></linearGradient></defs><g fill="none" fill-rule="evenodd"><ellipse fill="#DEE3F3" fill-rule="nonzero" opacity=".5" cx="150.601" cy="183.982" rx="66.583" ry="11.184"/><path d="M262.652 68.044c-5.96 13.46 1.642 28.96 10.59 40.63 2.995 3.914 6.301 8.017 6.716 12.926.5 6.005-3.566 11.525-8.389 15.133-8.798 6.576-20.814 8.61-31.286 5.29-9.048-2.866-16.656-9.341-25.784-11.951-15.264-4.372-31.444 2.876-44.517 11.906-9.253 6.383-19.162 14.162-30.318 12.794-7.848-.961-14.51-6.472-19.031-12.959-2.183-3.132-4.082-6.643-7.26-8.756-1.89-1.257-4.109-1.923-6.328-2.4-20.268-4.331-41.779 6.241-61.778.804-13.509-3.664-24.28-14.349-30.977-26.642C7.592 92.525 4.466 78.643 1.862 64.89c-1.85-9.769-3.386-20.322.867-29.307 4.5-9.513 14.916-15.28 25.384-16.36s20.967 1.902 30.611 6.109C70.774 30.6 82.585 37.976 95.737 38c8.957.018 17.499-3.42 26.062-6.042 14.318-4.38 29.207-6.557 44.044-8.566 14.205-1.923 28.55-3.712 42.84-2.577 10.111.803 19.04 4.668 28.853 6.457 6.395 1.166 12.822.305 19.098 2.26 7.73 2.417 15.68 8.02 16.107 16.842.403 8.398-6.93 14.528-10.09 21.669z" fill="#00B1EB" fill-rule="nonzero" opacity=".1"/><circle fill="#00B1EB" fill-rule="nonzero" opacity=".5" cx="228.129" cy="7.768" r="7.522"/><path d="M82.895 21.405h-1.79a1.254 1.254 0 0 0 0-2.505H66.61a1.254 1.254 0 1 0 0 2.505h1.79a1.254 1.254 0 0 0 0 2.505h-2.505a1.254 1.254 0 1 0 0 2.504H80.38a1.254 1.254 0 0 0 0-2.504h2.504a1.254 1.254 0 0 0 0-2.505h.01zM227.174 6.863h-1.363a.955.955 0 0 0 0-1.906h-11.03a.955.955 0 0 0 0 1.906h1.365a.955.955 0 1 0 0 1.907h-1.906a.955.955 0 0 0 0 1.906h11.033a.955.955 0 1 0 0-1.906h1.906a.955.955 0 1 0 0-1.907h-.005zM117.227 3.719h-1.79a1.254 1.254 0 1 0 0-2.505h-14.495a1.254 1.254 0 1 0 0 2.505h1.79a1.254 1.254 0 0 0 0 2.504h-2.505a1.254 1.254 0 1 0 0 2.505h14.484a1.254 1.254 0 0 0 0-2.505h2.505a1.254 1.254 0 0 0 0-2.504h.01z" fill="#DEE3F3" fill-rule="nonzero" opacity=".5"/><path fill="url(#a)" fill-rule="nonzero" d="M161.109 140.71h4.942V137.117h-40.444V140.711h4.941v3.597h-8.088v4.491h46.738v-4.491h-8.09z"/><path d="M194.218 144.003c.354-4.837.23-9.001-.26-12.588-.554-4.128-1.581-7.485-2.884-10.216-2.601-5.462-6.307-8.425-9.561-10.035a17.988 17.988 0 0 0-6.996-1.909 3.142 3.142 0 0 0-6.22-.013v-8.078H151.22V96.67h23.013a2.6 2.6 0 0 0 2.6-2.601V70.512a2.6 2.6 0 0 0-2.6-2.6h-8.736V44.69a3.506 3.506 0 0 0 2.062-3.194c0-2.147-1.572-3.72-3.511-3.72a3.511 3.511 0 0 0-3.511 3.512c0 1.503.713 2.694 1.857 3.303v23.317h-32.387V44.592a3.506 3.506 0 0 0 1.857-3.095c0-2.147-1.572-3.72-3.51-3.72a3.511 3.511 0 0 0-3.512 3.512c0 1.585.807 2.835 2.062 3.402v23.215h-9.48a2.6 2.6 0 0 0-2.6 2.601v23.554a2.6 2.6 0 0 0 2.6 2.6h23.013v4.495h-17.078v6.622a3.14 3.14 0 0 0-.678-1.131c-.975-.975-2.328-1.244-3.503-.758a3.144 3.144 0 0 0-1.941 2.906v.45s-3.23 0-7.093 1.912c-3.253 1.61-6.957 4.572-9.56 10.034-1.301 2.73-2.341 6.091-2.885 10.216-.484 3.584-.611 7.75-.26 12.589-7.212 5.982 1.82 14.684 1.82 14.684 7.4 0 7.236-12.284 7.153-14.38-.555-3.728-.704-7.21-.46-10.674.205-2.645.712-5.444 1.753-7.962a14.136 14.136 0 0 1 3.558-5.214 12.16 12.16 0 0 1 5.982-2.88v2.021a3.144 3.144 0 0 0 6.12 1.017v16.513h44.925v-16.175c.091.626.37 1.21.798 1.675.986 1 2.347 1.273 3.528.782a3.144 3.144 0 0 0 1.937-2.927v-2.882a12.125 12.125 0 0 1 5.842 2.86 14.136 14.136 0 0 1 3.558 5.216c1.04 2.52 1.544 5.316 1.753 7.961a46.01 46.01 0 0 1-.445 10.378c-.099 2.392-.263 14.676 7.137 14.676 0 .003 9.033-8.694 1.82-14.682z" fill="url(#b)" fill-rule="nonzero"/><path fill="url(#a)" fill-rule="nonzero" d="M124.707 149.213v4.083h5.394v26.964h-6.294v6.289h17.077v-6.29h-2.694v-26.963h6.289v-4.493h-19.772zM146.279 149.213v4.083h8.088v26.964h-6.291v6.289h17.077v-6.29h-2.697v-26.963h3.595v-4.493h-19.772z"/><rect fill="#00B1EB" fill-rule="nonzero" x="115.658" y="69.103" width="60.343" height="27.986" rx="12.97"/><path fill="#000" fill-rule="nonzero" opacity=".1" d="M120.467 92.794h50.723v1h-50.723z"/><path fill="#000" fill-rule="nonzero" opacity=".3" d="M120.467 73.475h50.723v19.239h-50.723z"/><circle fill="#000" fill-rule="nonzero" opacity=".1" cx="132.273" cy="83.496" r="6.996"/><circle fill="#DEE3F3" fill-rule="nonzero" cx="132.273" cy="83.096" r="6.996"/><circle fill="#000" fill-rule="nonzero" opacity=".1" cx="159.384" cy="83.496" r="6.996"/><circle fill="#DEE3F3" fill-rule="nonzero" cx="159.384" cy="83.096" r="6.996"/><path fill="#00B1EB" fill-rule="nonzero" d="M140.58 97.088h10.495v6.123H140.58z"/><path fill="#00B1EB" fill-rule="nonzero" d="M123.965 101.461h43.726v34.982h-43.726zM165.507 136.443v3.498h-4.812v3.498H130.96v-3.498h-4.806v-3.498z"/><path fill="#000" fill-rule="nonzero" opacity=".3" d="M165.507 136.443v3.498h-4.812v3.498H130.96v-3.498h-4.806v-3.498z"/><path fill="#00B1EB" fill-rule="nonzero" d="M123.092 143.439h45.477v4.372h-45.477zM125.276 147.814h19.239v4.372h-19.239zM146.266 147.814h19.239v4.372h-19.239zM124.402 178.421h16.617v6.123h-16.617z"/><path fill="#00B1EB" fill-rule="nonzero" d="M130.525 158.306v20.115h7.87v-26.238h-7.87zM154.136 152.183v26.238h7.873v-26.238zM148.016 178.421h16.617v6.123h-16.617zM124.132 108.894v10.729a3.061 3.061 0 0 1-6.112-.234v-10.495a3.059 3.059 0 0 1 5.222-2.164l.073.075c.475.508.762 1.162.814 1.855-.002.075.003.156.003.234zM173.778 109.768v10.497a3.059 3.059 0 0 1-5.228 2.164l-.083-.088a3.05 3.05 0 0 1-.814-2.081v-10.492a3.061 3.061 0 0 1 6.122 0h.003zM118.01 109.33v8.09a11.831 11.831 0 0 0-5.814 2.796 13.754 13.754 0 0 0-3.467 5.082c-1.011 2.45-1.503 5.173-1.703 7.748a44.298 44.298 0 0 0 .484 10.403h-8.742c-.372-4.835-.26-8.98.229-12.544.54-4.015 1.54-7.282 2.806-9.94 2.534-5.314 6.138-8.198 9.304-9.764 3.76-1.87 6.902-1.87 6.902-1.87z"/><path d="M100.518 157.432s-8.788-8.46-1.77-14.287h8.715s.926 14.287-6.945 14.287z" fill="#00B1EB" fill-rule="nonzero"/><path d="M100.518 157.432s-8.788-8.46-1.77-14.287h8.715s.926 14.287-6.945 14.287z" fill="#000" fill-rule="nonzero" opacity=".3"/><path stroke="#FFF" fill="#FC6681" fill-rule="nonzero" d="M129.302 106.216h33.054v25.276h-33.054z"/><path fill="#000" fill-rule="nonzero" opacity=".3" d="M130.525 152.183h7.87v6.123h-7.87zM130.525 163.554h7.87v7.87h-7.87zM130.525 175.797h7.87v2.624h-7.87zM154.136 152.183h7.87v6.123h-7.87zM154.136 163.554h7.87v7.87h-7.87zM154.136 175.797h7.87v2.624h-7.87zM118.01 109.33v8.09a11.831 11.831 0 0 0-5.814 2.796l-1.087-9.033c3.759-1.852 6.9-1.852 6.9-1.852zM108.73 125.298c-1.012 2.45-1.504 5.173-1.704 7.748l-8.032-2.151c.541-4.016 1.54-7.283 2.807-9.94l6.928 4.343z"/><path d="M173.65 109.33v8.09a11.831 11.831 0 0 1 5.824 2.796 13.754 13.754 0 0 1 3.462 5.074c1.011 2.45 1.503 5.173 1.703 7.748a44.298 44.298 0 0 1-.484 10.404h8.745c.372-4.835.26-8.981-.23-12.545-.54-4.015-1.539-7.282-2.806-9.94-2.533-5.314-6.138-8.198-9.303-9.764-3.769-1.862-6.91-1.862-6.91-1.862z" fill="#00B1EB" fill-rule="nonzero"/><path d="M191.141 157.432s8.789-8.46 1.772-14.287h-8.719s-.923 14.287 6.947 14.287z" fill="#00B1EB" fill-rule="nonzero"/><path d="M191.141 157.432s8.789-8.46 1.772-14.287h-8.719s-.923 14.287 6.947 14.287zM173.65 109.33v8.09a11.831 11.831 0 0 1 5.824 2.796l1.087-9.033c-3.769-1.852-6.91-1.852-6.91-1.852zM182.925 125.298c1.012 2.45 1.504 5.173 1.704 7.748l8.031-2.151c-.54-4.016-1.54-7.283-2.806-9.94l-6.929 4.343z" fill="#000" fill-rule="nonzero" opacity=".3"/><path fill="#000" fill-rule="nonzero" opacity=".1" d="M140.58 97.088h10.495v1H140.58zM168.47 107.695v14.646a3.05 3.05 0 0 1-.815-2.081v-10.492c0-.77.291-1.51.814-2.073zM124.122 108.66v10.963a3.048 3.048 0 0 1-.815 1.854v-14.672c.475.508.762 1.162.815 1.855zM126.153 136.443h39.354v1h-39.354zM125.276 147.814h19.239v1h-19.239zM146.266 147.814h19.239v1h-19.239z"/><path fill="#00B1EB" fill-rule="nonzero" d="M127.422 43.206h3.012v25.9h-3.012zM161.954 43.206h3.012v25.9h-3.012z"/><circle fill="#000" fill-rule="nonzero" opacity=".1" cx="128.829" cy="43.406" r="3.412"/><circle fill="#00B1EB" fill-rule="nonzero" cx="128.829" cy="43.206" r="3.412"/><circle fill="#000" fill-rule="nonzero" opacity=".1" cx="163.562" cy="43.406" r="3.412"/><circle fill="#00B1EB" fill-rule="nonzero" cx="163.562" cy="43.206" r="3.412"/><path d="M255.259 126.005s3.472 4.539-1.602 11.395c-5.075 6.856-9.257 12.64-7.566 16.906 0 0 7.654-12.73 13.886-12.906 6.232-.177 2.138-7.74-4.718-15.395z" fill="#00B1EB" fill-rule="nonzero"/><path d="M255.259 126.005c.303.438.542.917.71 1.423 6.078 7.142 9.319 13.808 3.475 13.975-5.444.156-11.965 9.883-13.525 12.346.051.19.113.376.185.56 0 0 7.654-12.73 13.886-12.906 6.232-.177 2.125-7.743-4.731-15.398z" fill="#000" fill-rule="nonzero" opacity=".1"/><path d="M261.714 131.79c0 1.597-.18 2.892-.4 2.892-.221 0-.4-1.3-.4-2.892 0-1.592.223-.846.444-.846.22 0 .356-.751.356.846z" fill="#FFD037" fill-rule="nonzero"/><path d="M263.928 133.699c-1.402.764-2.627 1.227-2.731 1.04-.104-.187.946-.973 2.34-1.737 1.394-.765.85-.208.955-.013.104.195.837-.055-.564.71z" fill="#FFD037" fill-rule="nonzero"/><path d="M236.925 126.005s-3.472 4.539 1.602 11.395c5.075 6.856 9.257 12.64 7.566 16.906 0 0-7.654-12.73-13.886-12.906-6.232-.177-2.138-7.74 4.718-15.395z" fill="#00B1EB" fill-rule="nonzero"/><path d="M236.925 126.005a5.623 5.623 0 0 0-.71 1.423c-6.078 7.142-9.319 13.808-3.475 13.975 5.444.156 11.964 9.883 13.525 12.346-.051.19-.113.376-.185.56 0 0-7.654-12.73-13.886-12.906-6.232-.177-2.125-7.743 4.731-15.398z" fill="#000" fill-rule="nonzero" opacity=".1"/><path d="M230.47 131.79c0 1.597.18 2.892.4 2.892.221 0 .4-1.3.4-2.892 0-1.592-.223-.846-.444-.846s-.356-.751-.356.846z" fill="#FFD037" fill-rule="nonzero"/><path d="M228.256 133.699c1.402.764 2.627 1.227 2.731 1.04.104-.187-.947-.973-2.34-1.737-1.395-.765-.851-.208-.955-.013-.104.195-.838-.055.564.71z" fill="#FFD037" fill-rule="nonzero"/><path d="M231.575 153.715s9.707-.299 12.63-2.382c2.923-2.084 14.93-4.57 15.655-1.23.725 3.34 14.586 16.614 3.628 16.702-10.958.089-25.46-1.706-28.381-3.485-2.92-1.779-3.532-9.605-3.532-9.605z" fill="#A8A8A8" fill-rule="nonzero"/><path d="M263.686 165.645c-10.958.089-25.46-1.706-28.381-3.485-2.224-1.355-3.121-6.213-3.405-8.455h-.325s.614 7.828 3.535 9.605c2.92 1.776 17.426 3.573 28.38 3.485 3.163-.026 4.256-1.15 4.196-2.817-.44 1.02-1.647 1.647-4 1.667z" fill="#000" fill-rule="nonzero" opacity=".2"/><g transform="translate(137 110)"><circle fill="url(#a)" fill-rule="nonzero" cx="9" cy="9" r="9"/><circle stroke="#FFF" fill="#FFF" fill-rule="nonzero" cx="9" cy="9" r="7.5"/><text font-family="NunitoSans-SemiBold, Nunito Sans" font-size="14" font-weight="500" letter-spacing="-.675" fill="#FC6681"><tspan x="7.172" y="14">!</tspan></text></g><g transform="translate(42 110)"><path d="M14.854 12.962s9.975 19.58 1.847 30.29.741 39.9.741 39.9" stroke="#00B1EB"/><path d="M17.83 6.84c0 3.773-2.77 6.84-2.77 6.84s-2.77-3.06-2.77-6.84S15.06 0 15.06 0s2.77 3.067 2.77 6.84z" fill="#00B1EB" fill-rule="nonzero"/><path d="M20.024 12.962s-9.975 19.58-1.846 30.29c8.128 10.71-.741 39.9-.741 39.9" stroke="#00B1EB"/><path d="M17.072 6.84c0 3.773 2.77 6.84 2.77 6.84s2.77-3.06 2.77-6.84S19.842 0 19.842 0s-2.77 3.067-2.77 6.84z" fill="#00B1EB" fill-rule="nonzero"/><path d="M17.072 6.84c0 3.773 2.77 6.84 2.77 6.84s2.77-3.06 2.77-6.84S19.842 0 19.842 0s-2.77 3.067-2.77 6.84z" fill="#000" fill-rule="nonzero" opacity=".1"/><path d="M24.1 12.962s9.975 19.58 1.847 30.29c-8.129 10.71.74 39.9.74 39.9" stroke="#00B1EB"/><path d="M27.047 6.84c0 3.773-2.77 6.84-2.77 6.84s-2.77-3.06-2.77-6.84S24.276 0 24.276 0s2.77 3.067 2.77 6.84zM25.49 22.526c-2.616 2.72-6.737 3.004-6.737 3.004s.126-4.127 2.742-6.84 6.737-3.004 6.737-3.004-.142 4.116-2.741 6.84zM25.753 36.035c-2.616 2.72-6.738 3.004-6.738 3.004s.126-4.127 2.742-6.84 6.738-3.004 6.738-3.004-.126 4.116-2.742 6.84zM11.56 43.462c2.474 2.85 2.388 6.977 2.388 6.977s-4.098-.496-6.572-3.346-2.388-6.976-2.388-6.976 4.098.495 6.572 3.346zM13.84 14.672c3.146 2.086 4.167 6.087 4.167 6.087s-4.082.622-7.228-1.465c-3.146-2.086-4.167-6.087-4.167-6.087s4.099-.633 7.228 1.465z" fill="#00B1EB" fill-rule="nonzero"/><path d="M13.84 14.672c3.146 2.086 4.167 6.087 4.167 6.087s-4.082.622-7.228-1.465c-3.146-2.086-4.167-6.087-4.167-6.087s4.099-.633 7.228 1.465z" fill="#000" fill-rule="nonzero" opacity=".1"/><path d="M29.258 12.962s-9.975 19.58-1.846 30.29c8.128 10.71-.741 39.9-.741 39.9" stroke="#00B1EB"/><path d="M26.306 6.84c0 3.773 2.77 6.84 2.77 6.84s2.77-3.06 2.77-6.84S29.076 0 29.076 0s-2.77 3.067-2.77 6.84z" fill="#00B1EB" fill-rule="nonzero"/><path d="M26.306 6.84c0 3.773 2.77 6.84 2.77 6.84s2.77-3.06 2.77-6.84S29.076 0 29.076 0s-2.77 3.067-2.77 6.84z" fill="#000" fill-rule="nonzero" opacity=".1"/><path d="M27.104 22.817c-2.65 2.69-2.85 6.84-2.85 6.84s4.12-.234 6.771-2.924c2.65-2.69 2.85-6.84 2.85-6.84s-4.12.234-6.771 2.924z" fill="#00B1EB" fill-rule="nonzero"/><path d="M27.104 22.817c-2.65 2.69-2.85 6.84-2.85 6.84s4.12-.234 6.771-2.924c2.65-2.69 2.85-6.84 2.85-6.84s-4.12.234-6.771 2.924z" fill="#000" fill-rule="nonzero" opacity=".1"/><path d="M32.296 41.519c-2.65 2.69-2.85 6.84-2.85 6.84s4.122-.234 6.772-2.924c2.65-2.69 2.85-6.84 2.85-6.84s-4.138.233-6.772 2.924z" fill="#00B1EB" fill-rule="nonzero"/><path d="M24.67 37.41s6.002-9.463 14.432-9.69M19.979 31.692s-6.002-9.462-14.433-9.69M19.198 45.201s6.002-9.462 14.432-9.69" stroke="#00B1EB"/><circle fill="#00B1EB" fill-rule="nonzero" cx="38.812" cy="27.668" r="1.556"/><circle fill="#00B1EB" fill-rule="nonzero" cx="5.695" cy="22.082" r="1.556"/><path d="M23.615 48.302s-6.002-9.462-14.432-9.69" stroke="#00B1EB"/><circle fill="#00B1EB" fill-rule="nonzero" cx="9.331" cy="38.703" r="1.556"/><circle fill="#00B1EB" fill-rule="nonzero" cx="33.744" cy="35.591" r="1.556"/><path d="M56.806 71.757s-14.466-2.895-18.33-6.754c-3.865-3.86-21.216-10.608-23.148-5.786-1.933 4.823-26.044 21.221-9.645 24.117 16.4 2.896 38.583 3.859 43.406 1.927 4.822-1.933 7.717-13.504 7.717-13.504z" fill="#A8A8A8" fill-rule="nonzero"/><path d="M5.683 81.538c16.4 2.896 38.583 3.86 43.406 1.927 3.67-1.47 6.224-8.55 7.233-11.81l.484.102s-2.895 11.577-7.717 13.504c-4.823 1.926-27.007.963-43.406-1.927-4.73-.838-6.087-2.799-5.574-5.278.399 1.596 2.052 2.861 5.574 3.483z" fill="#000" fill-rule="nonzero" opacity=".2"/></g></g></svg>