<?xml version="1.0" encoding="UTF-8"?>
<svg width="40px" height="17px" viewBox="0 0 40 17" version="1.1" xmlns="http://www.w3.org/2000/svg" xmlns:xlink="http://www.w3.org/1999/xlink">
    <!-- Generator: Sketch 48.2 (47327) - http://www.bohemiancoding.com/sketch -->
    <title>oil</title>
    <desc>Created with Sketch.</desc>
    <defs></defs>
    <g id="UI-Select-Services" stroke="none" stroke-width="1" fill="none" fill-rule="evenodd" transform="translate(-186.000000, -286.000000)">
        <g id="Group-11" transform="translate(156.000000, 286.000000)" fill="#00B1EB" fill-rule="nonzero">
            <g id="oil" transform="translate(30.000000, 0.000000)">
                <path d="M36.8621094,3.85148437 C37.1228125,4.1121875 37.5441406,4.1121875 37.8047656,3.85148437 C38.0653906,3.59148437 38.0653906,3.16945313 37.8047656,2.90882812 L36.4714062,1.57546875 C36.2460937,1.35078125 35.8934375,1.31617188 35.6300781,1.49210937 L33.6440625,2.81679687 L23.4734375,9.17351562 L20.5127344,5.62015625 C20.3853906,5.468125 20.1980469,5.38015625 20.0000781,5.38015625 L13.3334375,5.38015625 L13.3334375,3.38015625 L14.6667969,3.38015625 C15.0354687,3.38015625 15.3334375,3.0821875 15.3334375,2.71351562 C15.3334375,2.34554687 15.0354687,2.046875 14.6667969,2.046875 L10.6667969,2.046875 C10.298125,2.046875 10.0001562,2.34554688 10.0001562,2.71351562 C10.0001562,3.0821875 10.298125,3.38015625 10.6667969,3.38015625 L12.0001562,3.38015625 L12.0001562,5.38015625 L6.66679687,5.38015625 L6.66679687,3.38015625 C6.66679687,3.1575 6.55546875,2.94945312 6.37015625,2.82546875 L2.37015625,0.158828125 C2.20351563,0.0475 1.99546875,0.016796875 1.8021875,0.076796875 C1.61085937,0.136796875 1.45617188,0.279453125 1.38085938,0.46609375 L0.047421875,3.79953125 C-0.071875,4.09953125 0.040078125,4.4415625 0.3134375,4.61289062 L5.3334375,7.75023437 L5.3334375,15.3802344 C5.3334375,15.7489062 5.63140625,16.046875 6.00007812,16.046875 L26.0000781,16.046875 C26.2227344,16.046875 26.4307812,15.9355469 26.5547656,15.7502344 L34.4807812,3.8615625 L35.9154687,2.90492187 L36.8621094,3.85148437 Z" id="Shape"></path>
                <path d="M39.6524219,11.5242969 L39.4364062,11.1842969 C39.1457031,10.7289844 38.8710937,10.2982813 38.64375,9.84359375 L37.9297656,8.415625 C37.703125,7.96359375 36.9624219,7.96359375 36.7371094,8.415625 L36.1650781,9.5603125 C35.8610937,10.1682812 35.5464062,10.7963281 35.1377344,11.325625 C34.8577344,11.6869531 34.7057031,12.0809375 34.6730469,12.5309375 C34.5796875,13.8342969 35.5017187,15.0602344 36.7730469,15.3229687 C36.9583594,15.3609375 37.1450781,15.3796094 37.3303906,15.3796094 C37.9430469,15.3796094 38.5370312,15.1729688 39.0170312,14.7822656 C39.6417187,14.2729687 39.9996875,13.5189062 39.9996875,12.7135938 C39.9997656,12.2903125 39.883125,11.8896094 39.6524219,11.5242969 Z" id="Shape"></path>
            </g>
        </g>
    </g>
</svg>