<?xml version="1.0" encoding="UTF-8"?>
<svg width="16px" height="16px" viewBox="0 0 16 16" version="1.1" xmlns="http://www.w3.org/2000/svg" xmlns:xlink="http://www.w3.org/1999/xlink">
    <!-- Generator: Sketch 48.2 (47327) - http://www.bohemiancoding.com/sketch -->
    <title>Fill 207</title>
    <desc>Created with Sketch.</desc>
    <defs></defs>
    <g id="UI-Year&amp;model-Edit" stroke="none" stroke-width="1" fill="none" fill-rule="evenodd" transform="translate(-281.000000, -349.000000)">
        <path d="M287.000423,358.99908 C284.791267,358.99908 283.000141,357.208066 283.000141,354.999048 C283.000141,352.79003 284.791267,350.999016 287.000423,350.999016 C289.209579,350.999016 291.000706,352.79003 291.000706,354.999048 C291.000706,357.208066 289.209579,358.99908 287.000423,358.99908 Z M296.505094,362.61511 L292.714826,359.392084 C292.322799,359.039081 291.903769,358.878079 291.565745,358.89308 C292.460809,357.845071 293.000847,356.48606 293.000847,355.000048 C293.000847,351.686022 290.314657,349 287.000423,349 C283.68619,349 281,351.686022 281,355.000048 C281,358.314075 283.68619,361.000097 287.000423,361.000097 C288.486528,361.000097 289.845624,360.460092 290.893698,359.565085 C290.877697,359.903088 291.039708,360.322091 291.392733,360.714094 L294.615961,364.504125 C295.168,365.11713 296.069063,365.16913 296.619102,364.619126 C297.169141,364.069121 297.117137,363.167114 296.504094,362.61611 L296.505094,362.61511 Z" id="Fill-207" fill="#00B1EB"></path>
    </g>
</svg>