<?xml version="1.0" encoding="UTF-8"?>
<svg width="17px" height="17px" viewBox="0 0 17 17" version="1.1" xmlns="http://www.w3.org/2000/svg" xmlns:xlink="http://www.w3.org/1999/xlink">
    <!-- Generator: Sketch 48.2 (47327) - http://www.bohemiancoding.com/sketch -->
    <title>146-wrench</title>
    <desc>Created with Sketch.</desc>
    <defs></defs>
    <g id="Page-1" stroke="none" stroke-width="1" fill="none" fill-rule="evenodd">
        <g id="146-wrench" fill="#6E7B81" fill-rule="nonzero">
            <path d="M15.8668875,13.0148477 L8.5809375,6.73301184 C8.920125,6.09138463 9.1125,5.36013331 9.1125,4.58305147 C9.1125,2.0521886 7.0723125,0 4.55625,0 C4.0955625,0 3.6520875,0.069255 3.2329125,0.196561985 L5.8654125,2.84454728 C6.259275,3.24072662 6.259275,3.88846456 5.8654125,4.2846439 L4.2595875,5.89991493 C3.865725,6.29609426 3.221775,6.29609426 2.8279125,5.89991493 L0.1954125,3.25192963 C0.06885,3.67357037 5.55111512e-17,4.11965404 5.55111512e-17,4.58305147 C5.55111512e-17,7.11391434 2.0401875,9.16610294 4.55625,9.16610294 C5.3287875,9.16610294 6.056775,8.97259632 6.6936375,8.6314136 L12.9387375,15.9602221 C13.3012125,16.3859367 13.91985,16.4093612 14.3137125,16.0131818 L15.9195375,14.3979108 C16.3134,14.0017315 16.2891,13.3794549 15.8668875,13.0148477 L15.8668875,13.0148477 Z" id="Shape"></path>
        </g>
    </g>
</svg>