<?xml version="1.0" encoding="UTF-8"?>
<svg width="28px" height="28px" viewBox="0 0 28 28" version="1.1" xmlns="http://www.w3.org/2000/svg" xmlns:xlink="http://www.w3.org/1999/xlink">
    <!-- Generator: Sketch 48.2 (47327) - http://www.bohemiancoding.com/sketch -->
    <title>Group 8 Copy 8</title>
    <desc>Created with Sketch.</desc>
    <defs>
        <filter x="-2.2%" y="-9.2%" width="104.5%" height="121.7%" filterUnits="objectBoundingBox" id="filter-1">
            <feOffset dx="0" dy="1" in="SourceAlpha" result="shadowOffsetOuter1"></feOffset>
            <feGaussianBlur stdDeviation="2" in="shadowOffsetOuter1" result="shadowBlurOuter1"></feGaussianBlur>
            <feColorMatrix values="0 0 0 0 0.133333333   0 0 0 0 0.454901961   0 0 0 0 0.674509804  0 0 0 0.2 0" type="matrix" in="shadowBlurOuter1" result="shadowMatrixOuter1"></feColorMatrix>
            <feMerge>
                <feMergeNode in="shadowMatrixOuter1"></feMergeNode>
                <feMergeNode in="SourceGraphic"></feMergeNode>
            </feMerge>
        </filter>
    </defs>
    <g id="UI-Select-Services-repair" stroke="none" stroke-width="1" fill="none" fill-rule="evenodd" transform="translate(-23.000000, -666.000000)">
        <g id="Group-24" transform="translate(10.000000, 530.000000)">
            <g id="Group-8" filter="url(#filter-1)" transform="translate(5.000000, 119.000000)">
                <g id="Group-8-Copy-8" transform="translate(9.000000, 16.000000)">
                    <g id="steering-wheel" transform="translate(3.000000, 4.000000)">
                        <path d="M17.0349558,2.92274336 C15.150177,1.03800885 12.644292,0 9.97880531,0 C7.31340708,0 4.80747788,1.03800885 2.92274336,2.92274336 C1.03800885,4.80747788 0,7.31340708 0,9.97884956 C0,12.644292 1.0379646,15.150177 2.92274336,17.0349558 C4.80752212,18.9197345 7.31340708,19.9576991 9.97884956,19.9576991 C12.644292,19.9576991 15.1502212,18.9197345 17.0349558,17.0349558 C18.9196903,15.1502212 19.9576991,12.644292 19.9576991,9.97884956 C19.9576991,7.31340708 18.9196903,4.80747788 17.0349558,2.92274336 Z M9.97880531,19.1611947 C4.91566372,19.1611947 0.796460177,15.0419912 0.796460177,9.97884956 C0.796460177,4.91570796 4.91566372,0.796460177 9.97880531,0.796460177 C15.0419912,0.796460177 19.1611947,4.91566372 19.1611947,9.97880531 C19.1611947,15.0419469 15.0420354,19.1611947 9.97880531,19.1611947 Z" id="Shape" fill="#6E7B81" fill-rule="nonzero"></path>
                        <path d="M9.97880531,1.68716814 C5.40672566,1.68716814 1.68712389,5.40676991 1.68712389,9.97884956 C1.68712389,14.5509292 5.40672566,18.2705752 9.97880531,18.2705752 C14.550885,18.2705752 18.270531,14.5509292 18.270531,9.97884956 C18.270531,5.40676991 14.550885,1.68716814 9.97880531,1.68716814 Z M2.48358407,9.97884956 C2.48358407,9.34473451 2.5630531,8.72884956 2.7120354,8.14035398 C3.04526549,8.02792035 3.38221239,7.92300885 3.72017699,7.82623894 L3.14800885,10.2549558 C2.93053097,10.1982301 2.70955752,10.1498673 2.48526549,10.1106637 C2.48451327,10.0667699 2.48358407,10.0229204 2.48358407,9.97884956 Z M16.809646,10.254823 L16.2375664,7.82646018 C16.5758407,7.92323009 16.9127876,8.02814159 17.245708,8.14061947 C17.3946018,8.72902655 17.4740708,9.34482301 17.4740708,9.97884956 C17.4740708,10.0228761 17.4731416,10.0667257 17.4723894,10.1105752 C17.2480973,10.1497788 17.0271239,10.1980973 16.809646,10.254823 Z M9.97880531,2.48362832 C13.1323451,2.48362832 15.8369912,4.44141593 16.9418584,7.20526549 C16.5614159,7.08738938 16.1778761,6.9790708 15.7950885,6.88190265 C13.9063274,6.40013274 11.9495133,6.15584071 9.97893805,6.15584071 C8.00915929,6.15584071 6.05221239,6.4 4.16256637,6.88141593 C3.78,6.97876106 3.39650442,7.08721239 3.01579646,7.20517699 C4.12070796,4.44132743 6.82530973,2.48362832 9.97880531,2.48362832 Z M2.54389381,10.9319027 C5.6790708,11.5665044 8.0779646,14.1488496 8.48172566,17.3237611 C5.36849558,16.690177 2.95035398,14.1207965 2.54389381,10.9319027 Z M9.29654867,17.4426991 C9.27123894,17.1900442 9.23473451,16.940531 9.18716814,16.6947788 L10.7698673,16.6947788 C10.7222566,16.940531 10.6857965,17.1900885 10.6604867,17.4427876 C10.435885,17.4631416 10.2086726,17.474115 9.97884956,17.474115 C9.74880531,17.4740708 9.52132743,17.4630973 9.29654867,17.4426991 Z M11.4752655,17.3238938 C11.8790265,14.1484071 14.2782301,11.5659735 17.4138053,10.9317699 C17.0073451,14.1209735 14.5888496,16.6904867 11.4752655,17.3238938 Z" id="Shape" fill="#6E7B81" fill-rule="nonzero"></path>
                        <circle id="Oval-4" fill="#FFFFFF" cx="10" cy="10" r="2"></circle>
                    </g>
                </g>
            </g>
        </g>
    </g>
</svg>