<?xml version="1.0" encoding="UTF-8"?>
<svg width="30px" height="30px" viewBox="0 0 30 30" version="1.1" xmlns="http://www.w3.org/2000/svg" xmlns:xlink="http://www.w3.org/1999/xlink">
    <!-- Generator: Sketch 48.2 (47327) - http://www.bohemiancoding.com/sketch -->
    <title>Page 1</title>
    <desc>Created with Sketch.</desc>
    <defs>
        <polygon id="path-1" points="0 0.0166884451 29.9159077 0.0166884451 29.9159077 12.694558 0 12.694558"></polygon>
    </defs>
    <g id="UI-Confirmation" stroke="none" stroke-width="1" fill="none" fill-rule="evenodd" transform="translate(-220.000000, -446.000000)">
        <g id="Group-2" transform="translate(170.000000, 441.000000)">
            <g id="Page-1" transform="translate(50.000000, 5.000000)">
                <path d="M7.92910989,1.09464835 C8.15526374,1.05794505 8.4000989,1.05420879 8.61196703,1.15431868 C8.92559341,1.28069231 9.14746154,1.58102198 9.2233956,1.90464835 C9.24932967,2.13486813 9.24174725,2.37893407 9.13295604,2.58915385 C8.93515385,3.02376923 8.40921978,3.27442857 7.94746154,3.15387912 C7.47361538,3.04794505 7.1211978,2.59201099 7.12581319,2.10783516 C7.11658242,1.63651648 7.47746154,1.20596703 7.92910989,1.09464835" id="Fill-1" fill="#FFFFFF"></path>
                <path d="M21.4796703,1.09298901 C21.7086813,1.05705495 21.9556044,1.05672527 22.1683516,1.16178022 C22.5203297,1.31694505 22.759011,1.68441758 22.7843956,2.0652967 C22.783956,2.35848352 22.6859341,2.66463736 22.4685714,2.8698022 C22.2838462,3.06463736 22.0176923,3.17221978 21.7520879,3.18430769 C21.3407692,3.19013187 20.9261538,2.94452747 20.7651648,2.56079121 C20.6608791,2.35595604 20.6738462,2.11991209 20.6871429,1.89804396 C20.7651648,1.50672527 21.092967,1.18353846 21.4796703,1.09298901" id="Fill-3" fill="#FFFFFF"></path>
                <path d="M20.1198901,17.1118791 C20.6559341,17.1094615 21.1918681,17.109022 21.7274725,17.1118791 C21.7206593,19.2420989 21.7261538,21.3726484 21.7248352,23.5027582 C21.190989,23.5027582 20.6571429,23.5031978 20.1227473,23.5024286 C20.1216484,21.3723187 20.1273626,19.2420989 20.1198901,17.1118791" id="Fill-5" fill="#FFFFFF"></path>
                <path d="M21.4796703,1.09298901 C21.092967,1.18353846 20.7651648,1.50672527 20.6871429,1.89804396 C20.6738462,2.11991209 20.6608791,2.35595604 20.7651648,2.56079121 C20.9261538,2.94452747 21.3407692,3.19013187 21.7520879,3.18430769 C22.0176923,3.17221978 22.2838462,3.06463736 22.4685714,2.8698022 C22.6859341,2.66463736 22.783956,2.35848352 22.7843956,2.0652967 C22.759011,1.68441758 22.5203297,1.31694505 22.1683516,1.16178022 C21.9556044,1.05672527 21.7086813,1.05705495 21.4796703,1.09298901 M7.92912088,1.09463736 C7.47747253,1.20595604 7.11659341,1.63650549 7.12582418,2.10782418 C7.12120879,2.59210989 7.47362637,3.04793407 7.94747253,3.15386813 C8.40923077,3.27441758 8.93516484,3.02375824 9.13296703,2.58914286 C9.24175824,2.37892308 9.24934066,2.13485714 9.22340659,1.90463736 C9.14747253,1.58101099 8.9256044,1.28068132 8.61197802,1.15430769 C8.40010989,1.0541978 8.15527473,1.05793407 7.92912088,1.09463736 M2.74450549,0.163318681 C3.08230769,0.0151868132 3.45604396,-0.00734065934 3.82021978,0.00178021978 C11.3285714,0.00265934066 18.8368132,0.00178021978 26.3451648,0.00145054945 C27.1643956,-0.0123956044 27.9623077,0.493978022 28.2935165,1.24441758 C28.4331868,1.54013187 28.4924176,1.86837363 28.4867033,2.19452747 C28.4831868,2.92452747 28.4941758,3.65441758 28.4825275,4.38397802 C28.2401099,4.29178022 27.979011,4.26716484 27.7216484,4.26551648 C19.226044,4.26716484 10.7304396,4.26628571 2.23483516,4.26672527 C1.96571429,4.27386813 1.69043956,4.28551648 1.43648352,4.38441758 C1.4256044,3.62606593 1.43142857,2.86771429 1.42901099,2.10991209 C1.42395604,1.27397802 1.96824176,0.471450549 2.74450549,0.163318681" id="Fill-7" fill="#C7C7C7"></path>
                <path d="M21.3536813,10.7177033 C21.4737912,10.668033 21.6047802,10.6705604 21.7319231,10.6805604 C21.7244505,12.8178132 21.7328022,14.9555055 21.7277473,17.0927582 L21.7274176,17.1118791 C21.1918132,17.109022 20.6558791,17.1094615 20.1198352,17.1118791 L20.1198352,17.0931978 C20.1190659,15.6153956 20.1186264,14.138033 20.1202747,12.6601209 C19.0517033,13.0155055 17.9852198,13.3767143 16.9160989,13.730011 C16.9128022,13.2474835 16.9186264,12.7648462 16.9132418,12.2822088 C18.3913736,11.7553956 19.8746703,11.2415495 21.3536813,10.7177033" id="Fill-9" fill="#C7C7C7"></path>
                <path d="M8.27740659,11.4855934 C8.94685714,10.9754835 9.78487912,10.7118571 10.6215824,10.6805385 C11.4515824,10.6514176 12.3108132,10.7857033 13.0370769,11.2073516 C13.6113626,11.5364725 14.065978,12.0632857 14.3137802,12.6763626 C14.5607033,13.2887802 14.6391648,13.9657033 14.564,14.6200989 C14.4034505,15.6683407 13.5938901,16.5151538 12.6478462,16.9338352 C12.783011,16.9747143 12.9147692,17.026033 13.0408132,17.0897692 C12.9577363,17.1057033 12.8738901,17.1149341 12.7897143,17.1122967 C11.6734505,17.1043846 10.5572967,17.1197692 9.44202198,17.1048242 C9.43784615,16.8625165 9.43191209,16.6197692 9.44740659,16.3779011 C10.252022,16.3586703 11.1008132,16.457022 11.8536703,16.1041648 C12.4722418,15.8430659 12.9323516,15.2516374 13.0194945,14.5838352 C13.0945495,13.9477912 13.0302637,13.2520769 12.6532308,12.7135055 C12.3567473,12.2872418 11.8541099,12.0511978 11.3514725,11.9764725 C10.6732308,11.8818571 9.9296044,11.9494396 9.36026374,12.3610879 C8.7996044,12.7552637 8.50312088,13.450978 8.5172967,14.1262527 C8.00081319,14.1400989 7.48410989,14.1296593 6.9672967,14.1313077 C6.9772967,13.8476813 6.99894505,13.5622967 7.07279121,13.2874615 C7.25048352,12.5713077 7.68894505,11.9276813 8.27740659,11.4855934" id="Fill-11" fill="#C7C7C7"></path>
                <path d="M1.43647253,4.38437363 C1.69053846,4.28547253 1.9657033,4.27382418 2.23482418,4.26679121 C10.7304286,4.26635165 19.226033,4.26712088 27.7216374,4.26547253 C27.979,4.26712088 28.2400989,4.29173626 28.4825165,4.38393407 C29.2164725,4.64876923 29.8113077,5.32865934 29.8881209,6.11613187 C29.7387802,5.57646154 29.4159231,5.07426374 28.9332857,4.7769011 C28.5838352,4.55865934 28.1759231,4.43272527 27.762956,4.43646154 C19.2402088,4.44228571 10.7171319,4.44228571 2.19394505,4.44228571 C1.55196703,4.43063736 0.905043956,4.70756044 0.495813187,5.20734066 C0.297351648,5.41964835 0.193505495,5.69371429 0.0546043956,5.94349451 C0.192186813,5.22525275 0.754054945,4.62668132 1.43647253,4.38437363" id="Fill-13" fill="#4483EF"></path>
                <path d="M20.0898352,17.0956813 L20.1198352,17.0932637 L20.1198352,17.1118352 C20.1274176,19.2420549 20.1215934,21.3722747 20.1228022,23.5024945 C20.6570879,23.5032637 21.191044,23.5028242 21.7248901,23.5028242 C21.7262088,21.3727143 21.7207143,19.2420549 21.7274176,17.1118352 L21.7277473,17.0928242 L21.7536813,17.0948022 C21.9892857,17.1231538 22.2270879,17.1061209 22.464011,17.1085385 C24.4715934,17.1073297 26.4795055,17.1048022 28.486978,17.1085385 C28.7188462,20.4659011 28.9370879,23.824033 29.1665385,27.1812857 C29.1890659,27.565022 29.2378571,27.9591978 29.1313736,28.3353516 L29.1218132,28.3475495 C29.0234615,28.457989 28.9666484,28.5956813 28.8962088,28.7241429 C28.5196154,29.338978 27.8197253,29.7528242 27.0939011,29.7456813 C19.085,29.7410659 11.0766484,29.7494176 3.06818681,29.7464505 C2.81708791,29.7464505 2.56093407,29.7594176 2.3160989,29.6935934 C1.76269231,29.5426044 1.26082418,29.1800769 0.982252747,28.6732637 C0.923791209,28.5623846 0.869615385,28.4485385 0.791593407,28.349967 L0.781593407,28.3362308 C0.647747253,27.8332637 0.756538462,27.3118352 0.773241758,26.8021648 C0.993461538,23.5728242 1.20324176,20.3423846 1.42642857,17.1131538 C4.09554945,17.1065604 6.765,17.1094176 9.43401099,17.1116154 C9.43653846,17.265022 9.43774725,17.4185385 9.43565934,17.5720549 C10.2815934,17.5882088 11.1666484,17.487 11.967967,17.8218352 C12.508956,18.0328242 12.9531319,18.4851319 13.1242308,19.0435934 C13.3126923,19.6617253 13.291044,20.3457912 13.0695055,20.9527143 C12.863022,21.5215055 12.3684066,21.9611758 11.7907143,22.130956 C11.0891758,22.3386484 10.3078571,22.3207363 9.63214286,22.0308462 C9.10620879,21.806011 8.67697802,21.353044 8.51478022,20.8008462 C8.43752747,20.5576593 8.40752747,20.3019451 8.40291209,20.0478791 C7.89159341,20.0512857 7.38016484,20.0500769 6.86884615,20.0483187 C6.87840659,20.6953516 7.03532967,21.3521648 7.39653846,21.8953516 C7.78148352,22.4893077 8.37873626,22.923044 9.03324176,23.1775495 C9.8628022,23.5011758 10.7796154,23.5732637 11.6567582,23.4390879 C12.5097253,23.3038132 13.3453297,22.9218352 13.9245604,22.2682088 C14.4568681,21.6775495 14.7321429,20.8875495 14.7684066,20.0996374 C14.8171978,19.3475495 14.6441209,18.5576593 14.1665385,17.9602967 C13.8978571,17.6065604 13.5287363,17.3512857 13.1517033,17.1268901 C13.3352198,17.104033 13.5203846,17.108978 13.7052198,17.1098571 C15.5963187,17.1080989 17.4875275,17.1102967 19.3786264,17.108978 C19.6156593,17.104033 19.8537912,17.1235934 20.0898352,17.0956813" id="Fill-15" fill="#4483EF"></path>
                <g id="Group-19" transform="translate(0.000000, 4.419670)">
                    <mask id="mask-2" fill="white">
                        <use xlink:href="#path-1"></use>
                    </mask>
                    <g id="Clip-18"></g>
                    <path d="M0.495868132,0.787648352 C0.905098901,0.287978022 1.55202198,0.0110549451 2.19389011,0.0227032967 C10.7170769,0.0227032967 19.2402637,0.0227032967 27.7629011,0.0167692308 C28.1758681,0.013032967 28.5837802,0.139076923 28.9333407,0.357208791 C29.4158681,0.654571429 29.7388352,1.15676923 29.8880659,1.69654945 C29.9293846,1.8870989 29.9181758,2.08479121 29.8964176,2.27753846 C29.4335604,5.74578022 28.9533407,9.21193407 28.4966374,12.6810549 C26.570044,12.6776484 24.6434505,12.6827033 22.7171868,12.6806154 C22.395978,12.6780879 22.0744396,12.6925934 21.7536703,12.6751209 L21.7277363,12.6731429 C21.7327912,10.5357802 21.7244396,8.3981978 21.732022,6.26094505 C21.6047692,6.25083516 21.4737802,6.24841758 21.3536703,6.29808791 C19.8746593,6.82193407 18.3913626,7.33578022 16.9132308,7.86259341 C16.9186154,8.34512088 16.9127912,8.82775824 16.9160879,9.3103956 C17.9852088,8.9570989 19.0516923,8.59589011 20.1203736,8.24050549 C20.1186154,9.71830769 20.1190549,11.1956703 20.1199341,12.6735824 L20.0898242,12.676 C17.8512527,12.6925934 15.6118022,12.6764396 13.3732308,12.6846813 C13.2626813,12.6822637 13.1458681,12.7164396 13.0408132,12.6700659 C12.9147692,12.6063297 12.783011,12.555011 12.6478462,12.5141319 C13.5938901,12.0954505 14.4034505,11.2486374 14.564,10.2005055 C14.6391648,9.546 14.5607033,8.86907692 14.3137802,8.25676923 C14.065978,7.64358242 13.6113626,7.11676923 13.0370769,6.78775824 C12.3108132,6.366 11.4515824,6.23171429 10.6215824,6.26094505 C9.78487912,6.29215385 8.94685714,6.55578022 8.27740659,7.06589011 C7.68894505,7.50808791 7.25048352,8.1516044 7.07279121,8.86786813 C6.99894505,9.1427033 6.9772967,9.42797802 6.9672967,9.7116044 C7.48410989,9.70995604 8.00081319,9.7203956 8.5172967,9.70665934 C8.50312088,9.03138462 8.7996044,8.33556044 9.36026374,7.94149451 C9.9296044,7.52973626 10.6732308,7.46215385 11.3514725,7.55687912 C11.8541099,7.63149451 12.3567473,7.86764835 12.6532308,8.29391209 C13.0302637,8.83237363 13.0945495,9.52808791 13.0194945,10.1642418 C12.9323516,10.832044 12.4722418,11.4234725 11.8536703,11.6845714 C11.1008132,12.0374286 10.252022,11.938967 9.44740659,11.9581978 L9.42740659,11.9586374 C9.43575824,12.2009451 9.42608791,12.4436923 9.43279121,12.6864396 C6.76246154,12.6822637 4.0918022,12.6813846 1.42103297,12.6868791 C0.965538462,9.28863736 0.503010989,5.89138462 0.044989011,2.49358242 C-0.00753846154,2.17325275 -0.0255604396,1.84083516 0.0545494505,1.5238022 C0.19356044,1.27402198 0.297296703,0.999956044 0.495868132,0.787648352" id="Fill-17" fill="#3664D0" mask="url(#mask-2)"></path>
                </g>
                <path d="M0.791626374,28.349967 C0.869538462,28.4484286 0.923824176,28.5623846 0.982175824,28.6732637 C1.26085714,29.1800769 1.76261538,29.5426044 2.31613187,29.6935934 C2.56096703,29.7594176 2.81712088,29.7464505 3.06821978,29.7464505 C11.0765714,29.7494176 19.085033,29.7410659 27.0939341,29.7456813 C27.8197582,29.7528242 28.5196484,29.338978 28.8961319,28.7241429 C28.9666813,28.5956813 29.0234945,28.457989 29.1218462,28.3475495 C28.945033,29.0319451 28.3944835,29.6000769 27.7211868,29.8111758 C27.3458022,29.9420549 26.9433846,29.9090879 26.5532747,29.9133736 C18.7530549,29.9133736 10.9527253,29.9129341 3.1523956,29.9129341 C2.8412967,29.9153516 2.52305495,29.9183187 2.22349451,29.8211758 C1.53701099,29.6175495 0.972615385,29.044033 0.791626374,28.349967" id="Fill-20" fill="#3664D0"></path>
            </g>
        </g>
    </g>
</svg>