<?xml version="1.0" encoding="UTF-8"?>
<svg width="26px" height="22px" viewBox="0 0 26 22" version="1.1" xmlns="http://www.w3.org/2000/svg" xmlns:xlink="http://www.w3.org/1999/xlink">
    <!-- Generator: Sketch 48.2 (47327) - http://www.bohemiancoding.com/sketch -->
    <title>shopping-cart</title>
    <desc>Created with Sketch.</desc>
    <defs></defs>
    <g id="UI-Select-Services" stroke="none" stroke-width="1" fill="none" fill-rule="evenodd" transform="translate(-271.000000, -37.000000)">
        <g id="Group-22" fill="#00B1EB" fill-rule="nonzero" stroke="#00B1EB" stroke-width="0.5">
            <g id="Group-19" transform="translate(272.000000, 34.000000)">
                <g id="shopping-cart" transform="translate(0.000000, 4.000000)">
                    <path d="M8,16 C6.89722993,16 6,16.8972299 6,18 C6,19.1027701 6.89722993,20 8,20 C9.10277007,20 10,19.1027701 10,18 C10,16.8972299 9.10277007,16 8,16 Z M8,19.1999917 C7.33832968,19.1999917 6.80000828,18.6616703 6.80000828,18 C6.80000828,17.3383297 7.33832968,16.8000083 8,16.8000083 C8.66167032,16.8000083 9.19999172,17.3383297 9.19999172,18 C9.19999172,18.6616289 8.66167032,19.1999917 8,19.1999917 Z" id="Shape"></path>
                    <path d="M18,16 C16.8972299,16 16,16.8972299 16,18 C16,19.1027701 16.8972299,20 18,20 C19.1027701,20 20,19.1027701 20,18 C20,16.8972299 19.1027701,16 18,16 Z M18,19.1999917 C17.3383297,19.1999917 16.8000083,18.6616703 16.8000083,18 C16.8000083,17.3383297 17.3383297,16.8000083 18,16.8000083 C18.6616703,16.8000083 19.1999917,17.3383297 19.1999917,18 C19.1999917,18.6616289 18.6616703,19.1999917 18,19.1999917 Z" id="Shape"></path>
                    <path d="M23.9086939,4.72624784 C23.8231001,4.61238049 23.6893188,4.5454246 23.5471938,4.5454246 L3.95957918,4.5454246 L2.69789135,0.323910261 C2.64042258,0.131653241 2.46412566,0 2.26415686,0 L0.452812621,0 C0.202734429,0 0,0.203502597 0,0.454528345 C0,0.705554092 0.202734429,0.909056689 0.452812621,0.909056689 L1.92721927,0.909056689 L3.18801648,5.12774787 L5.90418908,14.6703493 C5.95973597,14.8654295 6.13739227,15 6.33961107,15 L20.8301774,15 C21.0323963,15 21.2100525,14.8654295 21.2655994,14.6703493 L23.9825689,5.12487766 C24.0216158,4.98771927 23.9942408,4.84011518 23.9086939,4.72624784 Z M20.4886461,14.0908963 L6.68118929,14.0908963 L4.222923,5.45452834 L22.9468186,5.45452834 L20.4886461,14.0908963 Z" id="Shape"></path>
                </g>
            </g>
        </g>
    </g>
</svg>