<?xml version="1.0" encoding="UTF-8"?>
<svg width="27px" height="28px" viewBox="0 0 27 28" version="1.1" xmlns="http://www.w3.org/2000/svg" xmlns:xlink="http://www.w3.org/1999/xlink">
    <!-- Generator: Sketch 48.2 (47327) - http://www.bohemiancoding.com/sketch -->
    <title>wrench</title>
    <desc>Created with Sketch.</desc>
    <defs></defs>
    <g id="UI-Select-Services" stroke="none" stroke-width="1" fill="none" fill-rule="evenodd" transform="translate(-89.000000, -281.000000)">
        <g id="Group-10" transform="translate(64.000000, 281.000000)" fill="#00B1EB" fill-rule="nonzero">
            <g id="wrench" transform="translate(25.000000, 0.000000)">
                <path d="M26.1186882,2.46764118 L24.4899,0.838852941 C23.4276882,-0.223358824 21.6378529,-0.285141176 20.4999353,0.701205882 L17.6373529,3.18255882 C17.6007176,3.21432353 17.5692706,3.2517 17.5442824,3.29325882 L14.7577235,7.93492941 L12.9685235,8.53131176 C12.8173235,8.58171176 12.7030235,8.70681176 12.6664412,8.86187647 C12.6298588,9.01694118 12.6761294,9.17989412 12.7887882,9.29260588 L17.6649353,14.1687 C17.7521824,14.2558941 17.8695529,14.3033294 17.9900471,14.3033294 C18.0252529,14.3033294 18.0606706,14.2993059 18.0956647,14.2910471 C18.2507294,14.2544647 18.3758294,14.1401647 18.4262294,13.9889647 L19.0227706,12.1991824 L23.7326824,9.35518235 C23.7741353,9.33008824 23.8114059,9.29869412 23.8430647,9.26195294 L26.2656529,6.45453529 C27.2464941,5.31799412 27.1804765,3.52948235 26.1186882,2.46764118 Z" id="Combined-Shape"></path>
                <path d="M24.8154353,18.4723412 C26.2374353,19.8943941 26.6820882,22.0232647 25.9481647,23.8960059 C25.8916235,24.0404294 25.7659941,24.1465765 25.6141588,24.1782882 C25.4622706,24.2101059 25.3047706,24.1630412 25.1950765,24.0533471 L22.2706059,21.1288765 L20.3201471,23.0792824 L23.2446706,26.0038059 C23.3543647,26.1135 23.4013235,26.2711059 23.3696118,26.4228882 C23.3379,26.5747235 23.2317,26.7003 23.0873294,26.7568941 C22.4879294,26.9917412 21.8621647,27.1058824 21.2419059,27.1059353 C19.9242,27.1059353 18.6306882,26.5909235 17.6638235,25.6241118 C16.3140882,24.2743235 15.8448706,22.2876529 16.4283882,20.4877059 L12.5869235,16.6462412 L8.03721176,21.1957941 L6.41932941,24.0895059 C6.37432941,24.1699765 6.30614118,24.2350941 6.22365882,24.2763353 L3.62308235,25.5766235 C3.55775294,25.6092882 3.48739412,25.6251706 3.41756471,25.6251706 C3.29828824,25.6251706 3.1806,25.5787941 3.09234706,25.4905412 L1.467,23.8651412 C1.32707647,23.7251647 1.2924,23.5113882 1.38091765,23.3344059 L2.68120588,20.7338294 C2.72244706,20.6513471 2.78756471,20.5831588 2.86803529,20.5381588 L5.76169412,18.9202765 L10.3113,14.3705647 L6.65793529,10.7172 C4.85798824,11.3008235 2.87137059,10.8315529 1.52158235,9.48181765 C0.0996352941,8.05976471 -0.345017647,5.93089412 0.388852941,4.05825882 C0.445394118,3.91383529 0.571023529,3.80768824 0.722858824,3.77597647 C0.8748,3.74442353 1.03219412,3.79127647 1.14194118,3.90091765 L4.06641176,6.82544118 L6.01692353,4.87498235 L3.0924,1.95051176 C2.98270588,1.84081765 2.93574706,1.68321176 2.96745882,1.53142941 C2.99917059,1.37959412 3.10537059,1.25401765 3.24974118,1.19742353 C5.12248235,0.463447059 7.2513,0.908258824 8.6733,2.33015294 C10.0229824,3.67994118 10.4921471,5.66661176 9.90868235,7.46655882 L19.6790824,17.2369588 C21.4790294,16.6534412 23.4656471,17.1226059 24.8154353,18.4723412 Z M17.3421683,20.1140156 C17.3386783,20.1101005 17.3350266,20.1062323 17.3312085,20.1024127 L12.6154048,15.4289603 L7.50183137,20.5122162 C7.46828998,20.5455599 7.43961656,20.5833297 7.4164641,20.6245224 L5.64482617,23.7745256 L3.20301363,24.9882353 L1.90588235,23.6987499 L3.12672925,21.2712716 L6.29535086,19.5101356 C6.33678782,19.4871196 6.3747816,19.4586152 6.40832298,19.4252715 L11.5201378,14.3435296 L7.08318048,9.9464195 C6.99472655,9.85801885 6.87637944,9.81091446 6.75584763,9.81091446 C6.69915185,9.81091446 6.64192322,9.82135842 6.58714572,9.84283248 C5.04485008,10.4473032 3.29149056,9.97508305 2.12038174,8.80413409 C1.12570123,7.80940029 0.764614039,6.39477672 1.03279998,5.04601403 L3.75313155,7.76639889 C3.93387599,7.94709003 4.2267864,7.94698346 4.40753083,7.76639889 L6.97208021,5.14890834 C7.15277135,4.96816391 7.05732258,4.83956796 6.87663143,4.65882353 L4.12079504,1.75526195 C5.4696643,1.48670301 7.01508161,1.91991334 8.0098154,2.91470042 C9.18087093,4.08575596 9.65298456,5.7861743 9.04856708,7.32852323 C8.98148063,7.49978284 9.02213747,7.69448807 9.1521541,7.82455799 L19.2991456,18.0220659 C19.4292688,18.1520825 19.6240806,18.1927394 19.7951804,18.1256529 C21.3375826,17.5213953 23.0858832,17.9907682 24.256992,19.1617704 C25.2517791,20.1565042 25.6524617,21.6289331 25.384329,22.9776425 L22.6464499,20.2596163 C22.4657055,20.0789784 22.2035818,20.0189211 22.0228374,20.1995589 L19.5112292,22.7641083 C19.4244804,22.8509104 19.1639594,23.0744471 19.2698418,23.1442757 C19.3647795,23.2068865 19.3286661,23.3504662 19.382719,23.4420896 L19.5260795,23.5854501 L22.231614,26.1389457 C20.8827448,26.4069718 19.3622921,26.0459379 18.3676649,25.0513107 C17.1966094,23.8802551 16.7267911,22.1325373 17.3312085,20.5901884 C17.3749871,20.4784297 17.4169957,20.3602038 17.4047706,20.2553977 C17.3921361,20.2054884 17.3711144,20.1576221 17.3421683,20.1140156 Z" id="Combined-Shape"></path>
            </g>
        </g>
    </g>
</svg>