<?xml version="1.0" encoding="UTF-8"?>
<svg width="30px" height="31px" viewBox="0 0 30 31" version="1.1" xmlns="http://www.w3.org/2000/svg" xmlns:xlink="http://www.w3.org/1999/xlink">
    <!-- Generator: Sketch 48.2 (47327) - http://www.bohemiancoding.com/sketch -->
    <title>Page 1</title>
    <desc>Created with Sketch.</desc>
    <defs>
        <polygon id="path-1" points="0 0.308652174 17.5462836 0.308652174 17.5462836 30.5507246 0 30.5507246"></polygon>
    </defs>
    <g id="UI-Confirmation" stroke="none" stroke-width="1" fill="none" fill-rule="evenodd" transform="translate(-170.000000, -446.000000)">
        <g id="Group-2" transform="translate(170.000000, 441.000000)">
            <g id="Page-1" transform="translate(0.000000, 5.000000)">
                <path d="M18.655791,6.8611087 L18.655791,12.7767174 L20.7163881,14.0782681 C20.7705672,14.094442 20.8883284,14.0957899 20.9425075,14.0782681 L29.8099701,8.07999275 C29.8099701,7.37013768 29.1499701,6.8611087 28.7769851,6.8611087 L18.655791,6.8611087 Z" id="Fill-1" fill="#0072C6"></path>
                <path d="M18.655791,14.9840522 L20.5363881,16.2802116 C20.8010149,16.4751971 21.1202687,16.2802116 21.1202687,16.2802116 C20.8019104,16.4751971 29.8108657,10.4710812 29.8108657,10.4710812 L29.8108657,21.3435449 C29.8108657,22.5273855 29.0559403,23.0238348 28.2069851,23.0238348 L18.6548955,23.0238348 L18.6548955,14.9840522 L18.655791,14.9840522 Z" id="Fill-3" fill="#0072C6"></path>
                <path d="M8.92047761,12.2563667 C8.27973134,12.2563667 7.76928358,12.558729 7.3918209,13.1616565 C7.01525373,13.7650333 6.82629851,14.5638449 6.82629851,15.557642 C6.82629851,16.5662652 7.01525373,17.3632797 7.3918209,17.9495841 C7.76928358,18.536787 8.2640597,18.8288159 8.87525373,18.8288159 C9.50570149,18.8288159 10.0058507,18.5435261 10.3752537,17.9738449 C10.744209,17.4032652 10.9295821,16.6111928 10.9295821,15.5989754 C10.9295821,14.5440768 10.7509254,13.7228014 10.3918209,13.1355986 C10.0331642,12.5492942 9.54331343,12.2563667 8.92047761,12.2563667" id="Fill-5" fill="#0072C6"></path>
                <g id="Group-9" transform="translate(0.000000, 0.140848)">
                    <mask id="mask-2" fill="white">
                        <use xlink:href="#path-1"></use>
                    </mask>
                    <g id="Clip-8"></g>
                    <path d="M11.7415075,19.2003667 C11.0000149,20.1793377 10.0332985,20.6699464 8.84001493,20.6699464 C7.6771791,20.6699464 6.7310597,20.1955116 5.99852239,19.2470913 C5.26732836,18.2973232 4.90061194,17.0613667 4.90061194,15.5369754 C4.90061194,13.927671 5.27180597,12.625671 6.01553731,11.6318739 C6.75926866,10.6376275 7.74434328,10.140729 8.97031343,10.140729 C10.1282239,10.140729 11.0658358,10.615613 11.7800149,11.5676275 C12.4955373,12.5191928 12.8528507,13.772671 12.8528507,15.3303087 C12.854194,16.9306275 12.483,18.2209464 11.7415075,19.2003667 Z M-0.000134328358,3.7160913 L-0.000134328358,26.859613 L17.5462836,30.5508594 L17.5462836,0.308337681 L-0.000134328358,3.7160913 Z" id="Fill-7" fill="#0072C6" mask="url(#mask-2)"></path>
                </g>
            </g>
        </g>
    </g>
</svg>